<svg width="40" height="40" viewBox="0 0 40 40" fill="none" xmlns="http://www.w3.org/2000/svg">
<path d="M20.0027 39.9987C31.0477 39.9987 40.0015 31.045 40.0015 20C40.0015 8.95492 31.0477 0.00115967 20.0027 0.00115967C8.95767 0.00115967 0.00390625 8.95492 0.00390625 20C0.00390625 31.045 8.95767 39.9987 20.0027 39.9987Z" fill="#EE6C05"/>
<path d="M24.0056 18.0012C25.6622 18.0012 27.0039 16.6568 27.0039 15.0012C27.0039 13.3455 25.6622 12.0012 24.0056 12.0012C22.349 12.0012 21.0039 13.3455 21.0039 15.0012C21.0039 16.6568 22.3456 18.0012 24.0056 18.0012Z" stroke="white" stroke-linejoin="round"/>
<path d="M15.0039 13.0012C13.3479 13.0012 12.0039 14.3451 12.0039 16.0012C12.0039 17.6572 13.3479 19.0012 15.0039 19.0012C16.6599 19.0012 18.0039 17.6572 18.0039 16.0012C18.0039 14.3451 16.6599 13.0012 15.0039 13.0012Z" stroke="white" stroke-linejoin="round"/>
<path d="M21.0039 24.5984C20.6424 24.4039 19.4257 24.0012 19.0039 24.0012V29.0012" stroke="white" stroke-linejoin="round"/>
<path d="M20.0039 20.9082C19.2009 20.6063 17.9065 20.5309 17.1346 20.5068C16.477 20.4863 16.0063 20.5171 14.5007 20.3662C11.1642 20.0334 9.30215 17.8309 8.05269 16.4209C7.43315 15.7245 6.59902 16.023 6.27022 16.3969C5.84104 16.8875 5.97602 17.4364 6.35329 18.0402C8.95258 22.1982 12.3895 23.32 12.3895 23.32L12.8463 29.0012" stroke="white" stroke-linejoin="round"/>
<path d="M27.059 29.0012L27.6685 22.5061C27.6685 22.5061 31.322 21.3967 33.6919 17.9861C34.0971 17.4056 34.1209 16.8217 33.6851 16.3786C33.3378 16.0283 32.6466 15.7363 31.9928 16.3924C30.7806 17.6082 29.0032 18.8756 25.8673 19.4424C24.8458 19.6278 23.7936 19.6038 23.1024 19.6175C21.8664 19.6416 20.6815 20.0812 20.0039 20.8987C20.0039 20.8987 21.3353 21.5479 21.3353 23.2789V28.9977" stroke="white" stroke-linejoin="round"/>
</svg>
