<svg width="40" height="40" viewBox="0 0 40 40" fill="none" xmlns="http://www.w3.org/2000/svg">
<g clip-path="url(#clip0_6783_63972)">
<path d="M19.9988 39.9976C31.0438 39.9976 39.9976 31.0438 39.9976 19.9988C39.9976 8.95376 31.0438 0 19.9988 0C8.95376 0 0 8.95376 0 19.9988C0 31.0438 8.95376 39.9976 19.9988 39.9976Z" fill="#2455CF"/>
<path d="M24.6994 17.5847C26.3505 17.5847 27.6887 16.2465 27.6887 14.5953C27.6887 12.9442 26.3505 11.6036 24.6994 11.6036C23.0483 11.6036 21.7076 12.9418 21.7076 14.5953C21.7076 16.2489 23.0459 17.5847 24.6994 17.5847Z" stroke="white" stroke-linejoin="round"/>
<path d="M16.0395 12.783C14.4437 12.783 13.1512 14.0755 13.1512 15.6712C13.1512 17.267 14.4437 18.5571 16.0395 18.5571C17.6353 18.5571 18.9254 17.2646 18.9254 15.6712C18.9254 14.0779 17.6329 12.783 16.0395 12.783Z" stroke="white" stroke-linejoin="round"/>
<path d="M22.0109 24.0712C21.5801 23.8787 20.1336 23.484 19.6329 23.484V28.3964" stroke="white" stroke-linejoin="round"/>
<path d="M20.6896 20.3502C19.8977 20.0493 18.6221 19.9747 17.8615 19.9507C17.2141 19.929 16.7495 19.9603 15.2669 19.8111C11.9767 19.4813 10.145 17.2886 8.91271 15.8878C8.30377 15.1947 7.47821 15.4931 7.15569 15.8638C6.73207 16.3524 6.86686 16.8963 7.23752 17.498C9.79844 21.6331 13.1849 22.7475 13.1849 22.7475L13.635 28.394" stroke="white" stroke-linejoin="round"/>
<path d="M27.7586 28.3964L28.37 21.9484C28.37 21.9484 32.0284 20.846 34.4064 17.4595C34.8132 16.8819 34.8373 16.3042 34.4016 15.8638C34.055 15.5148 33.3594 15.2284 32.7048 15.8782C31.4917 17.0841 29.7106 18.3429 26.5672 18.9061C25.5443 19.089 24.4901 19.0673 23.7969 19.0818C22.5574 19.1058 21.3708 19.5439 20.692 20.355C20.692 20.355 22.0254 21.0001 22.0254 22.721V28.4012" stroke="white" stroke-linejoin="round"/>
</g>
<defs>
<clipPath id="clip0_6783_63972">
<rect width="40" height="40" fill="white"/>
</clipPath>
</defs>
</svg>
