<svg width="34" height="34" viewBox="0 0 34 34" fill="none" xmlns="http://www.w3.org/2000/svg">
<g clip-path="url(#clip0_7320_1095)">
<path d="M27.1833 26.4657C29.261 24.2376 26.184 17.9914 20.3106 12.5143C14.4371 7.03724 7.99142 4.40343 5.91368 6.63153C3.83595 8.85963 6.91297 15.1059 12.7864 20.583C18.6598 26.06 25.1055 28.6938 27.1833 26.4657Z" stroke="white" stroke-width="2" stroke-linecap="round" stroke-linejoin="round"/>
<path d="M20.5829 20.3108C26.06 14.4374 28.6938 7.99169 26.4657 5.91395C24.2376 3.83621 17.9913 6.91324 12.5143 12.7867C7.03721 18.6601 4.4034 25.1058 6.6315 27.1835C8.8596 29.2613 15.1059 26.1843 20.5829 20.3108Z" stroke="white" stroke-width="2" stroke-linecap="round" stroke-linejoin="round"/>
<path d="M16.6011 18.0477C17.429 18.0188 18.0767 17.3242 18.0478 16.4963C18.0189 15.6684 17.3243 15.0206 16.4964 15.0495C15.6685 15.0785 15.0208 15.7731 15.0497 16.601C15.0786 17.4289 15.7732 18.0766 16.6011 18.0477Z" fill="white"/>
</g>
<defs>
<clipPath id="clip0_7320_1095">
<rect width="32" height="32" fill="white" transform="translate(0 1.11678) rotate(-2)"/>
</clipPath>
</defs>
</svg>
