<svg width="40" height="40" viewBox="0 0 40 40" fill="none" xmlns="http://www.w3.org/2000/svg">
<g clip-path="url(#clip0_6662_60413)">
<path d="M19.9988 39.9976C31.0438 39.9976 39.9976 31.0438 39.9976 19.9988C39.9976 8.95376 31.0438 0 19.9988 0C8.95376 0 0 8.95376 0 19.9988C0 31.0438 8.95376 39.9976 19.9988 39.9976Z" fill="#EE6C05"/>
<path d="M8.82031 28.985L16.8203 11.82L23.5476 27.2221L33.8203 25.1809L28.1839 10.985L17.5476 11.5417" fill="#EE6C05"/>
<path d="M8.82031 28.985L16.8203 11.82L23.5476 27.2221L33.8203 25.1809L28.1839 10.985L17.5476 11.5417" stroke="white" stroke-linecap="round" stroke-linejoin="round"/>
<path d="M15.3497 16.545L5.82031 21.9583L12.1733 29.7983L16.5422 15.985L20.8203 29.985" fill="#EE6C05"/>
<path d="M15.3497 16.545L5.82031 21.9583L12.1733 29.7983L16.5422 15.985L20.8203 29.985" stroke="white" stroke-linecap="round" stroke-linejoin="round"/>
<path d="M33.8203 26.985L33.5476 27.9278L22.8203 29.985L23.0021 28.9564" fill="#EE6C05"/>
<path d="M33.8203 26.985L33.5476 27.9278L22.8203 29.985L23.0021 28.9564" stroke="white" stroke-linecap="round" stroke-linejoin="round"/>
</g>
<defs>
<clipPath id="clip0_6662_60413">
<rect width="40" height="40" fill="white"/>
</clipPath>
</defs>
</svg>
