<svg width="26" height="21" viewBox="0 0 26 21" fill="none" xmlns="http://www.w3.org/2000/svg">
<path d="M5.80859 19.2336V1.23358" stroke="#F44B1B" stroke-width="2" stroke-linecap="round" stroke-linejoin="round"/>
<path d="M10.8016 15.1446C10.5377 14.9398 10.1322 14.9559 9.88761 15.1715L6.48273 18.249C6.22528 18.4808 5.79403 18.4808 5.53658 18.249L2.11883 15.1769C1.87424 14.9613 1.46875 14.9452 1.20485 15.15C0.947394 15.3548 0.928085 15.6943 1.17267 15.9099L5.53014 19.8282C5.7876 20.06 6.21884 20.0546 6.4763 19.8282L10.8273 15.9045C11.0719 15.6889 11.0526 15.344 10.7951 15.1446H10.8016Z" fill="#F44B1B" stroke="#F44B1B" stroke-width="0.5"/>
<path d="M12.7539 2.23358H24.2924" stroke="#F44B1B" stroke-width="2" stroke-linecap="round" stroke-linejoin="round"/>
<path d="M12.7539 7.23358H21.4078" stroke="#F44B1B" stroke-width="2" stroke-linecap="round" stroke-linejoin="round"/>
<path d="M12.7539 13.2336H18.5231" stroke="#F44B1B" stroke-width="2" stroke-linecap="round" stroke-linejoin="round"/>
<path d="M12.7539 18.2336H15.6385" stroke="#F44B1B" stroke-width="2" stroke-linecap="round" stroke-linejoin="round"/>
</svg>
