<svg width="40" height="40" viewBox="0 0 40 40" fill="none" xmlns="http://www.w3.org/2000/svg">
<g clip-path="url(#clip0_6662_60398)">
<path d="M19.9988 39.9976C31.0438 39.9976 39.9976 31.0438 39.9976 19.9988C39.9976 8.95376 31.0438 0 19.9988 0C8.95376 0 0 8.95376 0 19.9988C0 31.0438 8.95376 39.9976 19.9988 39.9976Z" fill="#EE6C05"/>
<path d="M19.4631 30.5092C13.122 30.5092 7.16542 26.5401 4.91218 20.1846C4.8561 20.0272 4.93821 19.8535 5.09444 19.797L33.6015 9.52894C33.6776 9.5027 33.7597 9.50472 33.8318 9.54106C33.9039 9.57538 33.96 9.63796 33.986 9.71266C35.3741 13.6273 35.1658 17.8508 33.4012 21.6079C31.6367 25.3651 28.5262 28.2036 24.6446 29.6027C22.9341 30.2185 21.1836 30.5112 19.4631 30.5112V30.5092ZM5.58114 20.2654C7.82037 26.207 13.4625 29.9035 19.4611 29.9035C21.1155 29.9035 22.7959 29.6229 24.4403 29.0294C32.0493 26.2877 36.0711 17.8892 33.5154 10.2012L5.58114 20.2654Z" fill="white"/>
<path d="M20.122 28C18.2447 28 16.3755 27.5696 14.6261 26.7131C11.5209 25.1931 9.17472 22.5121 8.01788 19.1657C7.96105 19.0019 8.04426 18.8214 8.20257 18.7626C8.36087 18.7038 8.53541 18.7899 8.59224 18.9536C9.69428 22.1426 11.9288 24.6955 14.8879 26.1441C17.8469 27.5927 21.1733 27.7628 24.2542 26.6228C27.337 25.4828 29.805 23.1713 31.2053 20.1104C32.6057 17.0494 32.7701 13.6085 31.6681 10.4216C31.6113 10.2578 31.6945 10.0773 31.8528 10.0185C32.0111 9.95971 32.1856 10.0458 32.2424 10.2095C33.3993 13.556 33.2268 17.1691 31.7554 20.3812C30.286 23.5933 27.6942 26.0202 24.4592 27.2169C23.0446 27.7397 21.5813 28 20.122 28Z" fill="white"/>
<path d="M14.3168 20.7118C14.6976 20.5757 14.8658 20.0725 14.6926 19.5878C14.5194 19.1032 14.0702 18.8207 13.6895 18.9568C13.3087 19.0929 13.1404 19.5961 13.3137 20.0807C13.4869 20.5654 13.936 20.8479 14.3168 20.7118Z" fill="white"/>
<path d="M18.4887 22.5585C18.8695 22.4224 19.0377 21.9191 18.8645 21.4345C18.6912 20.9499 18.2421 20.6674 17.8613 20.8035C17.4806 20.9396 17.3123 21.4428 17.4855 21.9274C17.6588 22.4121 18.1079 22.6946 18.4887 22.5585Z" fill="white"/>
<path d="M19.641 18.8087C20.0218 18.6726 20.1901 18.1694 20.0168 17.6848C19.8436 17.2001 19.3945 16.9176 19.0137 17.0537C18.6329 17.1898 18.4647 17.693 18.6379 18.1777C18.8111 18.6623 19.2602 18.9448 19.641 18.8087Z" fill="white"/>
<path d="M23.477 20.7732C23.8577 20.6371 24.026 20.1339 23.8528 19.6492C23.6795 19.1646 23.2304 18.8821 22.8496 19.0182C22.4688 19.1543 22.3006 19.6575 22.4738 20.1421C22.6471 20.6268 23.0962 20.9093 23.477 20.7732Z" fill="white"/>
<path d="M24.9691 16.9048C25.3499 16.7687 25.5182 16.2655 25.3449 15.7808C25.1717 15.2962 24.7226 15.0137 24.3418 15.1498C23.961 15.2859 23.7928 15.7891 23.966 16.2737C24.1393 16.7584 24.5884 17.0409 24.9691 16.9048Z" fill="white"/>
<path d="M28.4691 18.9891C28.8499 18.853 29.0182 18.3498 28.8449 17.8652C28.6717 17.3805 28.2226 17.098 27.8418 17.2341C27.461 17.3702 27.2928 17.8735 27.466 18.3581C27.6393 18.8427 28.0884 19.1252 28.4691 18.9891Z" fill="white"/>
<path d="M30.2934 15.0015C30.6741 14.8653 30.8424 14.3621 30.6692 13.8775C30.4959 13.3929 30.0468 13.1103 29.666 13.2465C29.2852 13.3826 29.117 13.8858 29.2902 14.3704C29.4635 14.855 29.9126 15.1376 30.2934 15.0015Z" fill="white"/>
</g>
<defs>
<clipPath id="clip0_6662_60398">
<rect width="40" height="40" fill="white"/>
</clipPath>
</defs>
</svg>
