<svg width="88" height="88" viewBox="0 0 88 88" fill="none" xmlns="http://www.w3.org/2000/svg">
<path d="M41.7129 63C50.5494 63 57.7129 55.6127 57.7129 46.5C57.7129 37.3873 50.5494 30 41.7129 30C32.8763 30 25.7129 37.3873 25.7129 46.5C25.7129 55.6127 32.8763 63 41.7129 63Z" stroke="white" stroke-width="2" stroke-linecap="round" stroke-linejoin="round"/>
<path d="M28.4071 21.1111L22.2257 15.0173C21.5455 14.3475 20.4752 14.3069 19.7501 14.9259L14.8339 19.1119C14.1087 19.7309 13.9587 20.8066 14.4938 21.6032L19.335 28.8336C19.7351 29.4272 19.7601 30.2036 19.405 30.8276L17.1395 34.8056C16.7844 35.4297 16.1092 35.79 15.404 35.7392L6.81199 35.105C5.86677 35.0339 5.02157 35.7037 4.85653 36.6525L3.74126 43.066C3.57622 44.0148 4.14636 44.9332 5.05658 45.197L13.3486 47.5818C14.0287 47.7797 14.5438 48.353 14.6639 49.0634L15.449 53.5843C15.5741 54.2946 15.284 55.01 14.7089 55.4312L7.72221 60.5457C6.95203 61.1089 6.72697 62.1694 7.20209 63.0066L10.4129 68.6488C10.888 69.4809 11.9082 69.8158 12.7734 69.42L20.6353 65.8378C21.2804 65.5435 22.0406 65.6501 22.5807 66.1118L26.0466 69.0648C26.5917 69.5266 26.8268 70.2623 26.6517 70.9625L24.5412 79.436C24.3112 80.3696 24.8113 81.3286 25.7015 81.6584L31.7329 83.8858C32.6231 84.2156 33.6184 83.8046 34.0285 82.9421L37.7844 75.0724C38.0944 74.4229 38.7396 74.0119 39.4498 74.0119H43.9758C44.686 74.0119 45.3312 74.4229 45.6412 75.0724L49.3971 82.9421C49.8122 83.8097 50.8025 84.2156 51.6927 83.8858L57.7241 81.6584C58.6143 81.3286 59.1194 80.3696 58.8844 79.436L56.7739 70.9625C56.5988 70.2674 56.8339 69.5266 57.379 69.0648L60.8449 66.1118C61.39 65.6501 62.1452 65.5435 62.7903 65.8378L70.6522 69.42C71.5174 69.8158 72.5376 69.4809 73.0128 68.6488L76.2235 63.0066C76.6986 62.1744 76.4736 61.1089 75.7034 60.5457L68.7167 55.4312C68.1416 55.01 67.8565 54.2946 67.9766 53.5843L68.7617 49.0634C68.8868 48.353 69.3969 47.7797 70.0771 47.5818L78.369 45.197C79.2842 44.9332 79.8494 44.0148 79.6843 43.066L78.5691 36.6525C78.404 35.7037 77.5588 35.039 76.6136 35.105L68.0216 35.7392C67.3164 35.79 66.6412 35.4297 66.2861 34.8056L64.0206 30.8276C63.6655 30.2036 63.6955 29.4323 64.0906 28.8336L68.9318 21.6032C69.4669 20.8066 69.3169 19.7309 68.5917 19.1119L63.6755 14.9259C62.9504 14.3069 61.8801 14.3475 61.1999 15.0173L55.0185 21.1111C54.5083 21.6134 53.7632 21.7757 53.098 21.5271L48.842 19.9542C48.1768 19.7056 47.7067 19.0967 47.6367 18.3813L46.7615 9.68455C46.6665 8.72557 45.8713 8 44.9211 8H38.4995C37.5493 8 36.7541 8.73065 36.6591 9.68455L35.7839 18.3813C35.7139 19.0967 35.2438 19.7056 34.5786 19.9542L30.3226 21.5271C29.6574 21.7757 28.9123 21.6134 28.4021 21.1111H28.4071Z" stroke="white" stroke-width="2" stroke-linecap="round" stroke-linejoin="round"/>
</svg>
