<svg width="59" height="79" viewBox="0 0 59 79" fill="none" xmlns="http://www.w3.org/2000/svg">
<path d="M53.7009 35.0316V77.8861H5.30469V35.0316" stroke="white" stroke-width="2" stroke-linecap="round" stroke-linejoin="round"/>
<path d="M23.6622 35.0316H1V21.1669H58V35.0316H35.3378" stroke="white" stroke-width="2" stroke-linecap="round" stroke-linejoin="round"/>
<path d="M35.4161 21.1669H23.5859V77.8861H35.4161V21.1669Z" stroke="white" stroke-width="2" stroke-linecap="round" stroke-linejoin="round"/>
<path d="M24.1221 7.30212C27.3878 7.30212 30.0372 10.4072 30.0372 14.2345V21.1668H24.1221C20.8565 21.1668 18.207 18.0617 18.207 14.2345C18.207 10.4072 20.8565 7.30212 24.1221 7.30212Z" stroke="white" stroke-width="2" stroke-linecap="round" stroke-linejoin="round"/>
<path d="M34.876 7.30212C38.1417 7.30212 40.7911 10.4072 40.7911 14.2345C40.7911 18.0617 38.1417 21.1668 34.876 21.1668H28.9609V14.2345C28.9609 10.4072 31.6104 7.30212 34.876 7.30212Z" stroke="white" stroke-width="2" stroke-linecap="round" stroke-linejoin="round"/>
<path d="M23.5859 7.30214C23.5859 3.82283 26.2354 1 29.501 1C32.7667 1 35.4161 3.82283 35.4161 7.30214" stroke="white" stroke-width="2" stroke-linecap="round" stroke-linejoin="round"/>
</svg>
