<svg width="76" height="76" viewBox="0 0 76 76" fill="none" xmlns="http://www.w3.org/2000/svg">
<path d="M17.0731 8.61633C17.0146 10.091 21.3892 12.2025 15.3387 17.0539C14.3807 17.8219 16.5931 17.7627 17.3444 18.8692C18.0958 19.9736 21.1784 14.2527 22.5914 15.3846C24.0043 16.5165 25.7282 19.0109 22.3576 20.4877C18.9869 21.9624 19.3292 27.9563 17.5197 30.1672C15.7102 32.3782 14.5081 35.0207 14.5081 35.0207C14.5081 35.0207 13.0742 30.3449 10.0792 32.8267C5.2852 36.7958 8.63498 39.2162 10.9725 37.0264C13.3121 34.8366 11.6174 38.8862 13.5334 39.9906C15.7227 41.2516 17.6512 45.9633 19.2708 45.2228C20.8904 44.4823 26.2271 44.5648 28.886 45.2228C33.2731 46.3082 32.7826 51.259 29.7417 55.1646C25.3547 60.8009 29.3473 59.9208 27.64 61.3193C24.0857 64.2327 23.7601 68.8471 23.1361 71.24" stroke="white" stroke-width="2" stroke-linecap="round" stroke-linejoin="round"/>
<path d="M17.8507 68.3045C17.8507 68.3045 20.2393 62.9046 19.0471 59.2996C17.855 55.6945 14.6332 58.2997 14.1675 52.945L13.7017 47.5903C13.7017 47.5903 14.9323 43.9465 9.5955 41.6775C4.25867 39.4085 1.76758 37.9712 1.76758 37.9712" stroke="white" stroke-width="2" stroke-linecap="round" stroke-linejoin="round"/>
<path d="M73.1965 31.8809C73.1965 31.8809 71.2074 30.823 69.8964 28.4885C68.5854 26.1541 66.3382 25.8701 66.3382 25.8701C66.3382 25.8701 65.4963 30.7767 66.2542 31.3425C67.0121 31.9082 68.2802 32.7621 68.1347 33.1553C67.9893 33.5507 66.203 36.0135 65.3611 37.5824C64.5191 39.1492 63.1159 41.7634 65.2853 42.8549C66.9118 43.673 64.1258 47.8961 61.766 52.4283C60.5226 54.8153 60.9056 53.9678 58.9268 57.9868C56.948 62.0059 54.7909 63.8945 52.8571 66.496C50.7656 69.31 48.6741 69.7138 48.33 68.9315C47.6683 67.4361 50.2166 58.3948 47.5024 52.3968C45.1385 47.1705 41.1808 50.6091 38.7288 46.7709C36.2767 42.9306 40.386 37.6245 42.3812 36.5056C44.3764 35.3867 46.0623 36.5666 48.7274 38.2785C48.7274 38.2785 54.6455 39.3301 57.4068 39.7023C60.1682 40.0767 66.541 29.5611 60.2214 31.8262C58.1094 32.5833 55.9319 27.3402 55.9319 27.3402L52.2385 25.8744L54.4078 32.3477L51.0319 32.8525L47.824 27.1594L46.2692 26.9196L42.7888 32.7852L39.1999 31.435C39.1999 31.435 37.5959 29.233 38.188 27.3865C38.78 25.5421 42.2808 25.8197 42.2808 25.8197C42.2808 25.8197 41.5905 23.521 42.9363 22.3748C44.2822 21.2286 47.357 22.4231 50.9869 19.3673C54.6188 16.3115 49.6779 16.2421 48.4693 17.2411C47.2607 18.24 44.276 18.0234 44.231 15.8845C44.1859 13.7457 45.8452 11.5164 48.8216 10.4122C52.7772 8.94637 54.5307 9.52473 55.2457 11.5669C55.4198 12.0611 59.9223 11.4091 61.6656 10.6562" stroke="white" stroke-width="2" stroke-linecap="round" stroke-linejoin="round"/>
<path d="M37.9719 74.1754C57.967 74.1754 74.1762 57.9662 74.1762 37.9711C74.1762 17.9761 57.967 1.76685 37.9719 1.76685C17.9768 1.76685 1.76758 17.9761 1.76758 37.9711C1.76758 57.9662 17.9768 74.1754 37.9719 74.1754Z" stroke="white" stroke-width="2" stroke-linecap="round" stroke-linejoin="round"/>
</svg>
