<svg width="32" height="32" viewBox="0 0 32 32" fill="none" xmlns="http://www.w3.org/2000/svg">
<g clip-path="url(#clip0_7320_1101)">
<path d="M16 28C22.6274 28 28 22.6274 28 16C28 9.37258 22.6274 4 16 4C9.37258 4 4 9.37258 4 16C4 22.6274 9.37258 28 16 28Z" stroke="#1C1C1E" stroke-width="2" stroke-linecap="round" stroke-linejoin="round"/>
<path d="M9.48511 15.4074L11.1501 12.4999C11.238 12.3477 11.3645 12.2213 11.5168 12.1335C11.6691 12.0458 11.8418 11.9997 12.0176 11.9999H14.1064C14.2752 12.0002 14.4414 11.9572 14.5889 11.8749L16.1251 11.0299C16.1927 10.9936 16.2553 10.9486 16.3114 10.8962L19.6764 7.85493C19.8438 7.70265 19.9546 7.49809 19.9907 7.27467C20.0268 7.05125 19.9861 6.82219 19.8751 6.62493L18.5626 4.27368" stroke="#1C1C1E" stroke-width="2" stroke-linecap="round" stroke-linejoin="round"/>
<path d="M8.47258 6.65381L7.00008 10.1351C6.90061 10.3707 6.89525 10.6356 6.98508 10.8751L8.42258 14.7088C8.48164 14.8654 8.57908 15.0048 8.70597 15.114C8.83286 15.2232 8.98513 15.2987 9.14883 15.3338L11.8276 15.9101C11.9762 15.9419 12.1155 16.0072 12.2351 16.101C12.3546 16.1948 12.4512 16.3146 12.5176 16.4513L12.9926 17.4351C13.0745 17.6041 13.2024 17.7466 13.3616 17.8463C13.5207 17.946 13.7048 17.9988 13.8926 17.9988H15.6176" stroke="#1C1C1E" stroke-width="2" stroke-linecap="round" stroke-linejoin="round"/>
<path d="M26.6362 21.56L20.0887 17.5325C19.9696 17.46 19.8368 17.4127 19.6987 17.3938L16.8462 17.0088C16.6319 16.9798 16.4141 17.021 16.2252 17.1262C16.0364 17.2315 15.8867 17.3951 15.7987 17.5925L14.0862 21.435C14.0066 21.6139 13.9812 21.8121 14.0132 22.0052C14.0452 22.1983 14.1332 22.3777 14.2662 22.5213L16.7337 25.0625C16.8406 25.1775 16.919 25.3161 16.9624 25.4671C17.0059 25.618 17.0132 25.777 16.9837 25.9313L16.5874 27.9863" stroke="#1C1C1E" stroke-width="2" stroke-linecap="round" stroke-linejoin="round"/>
</g>
<defs>
<clipPath id="clip0_7320_1101">
<rect width="32" height="32" fill="white"/>
</clipPath>
</defs>
</svg>
