<svg width="34" height="34" viewBox="0 0 34 34" fill="none" xmlns="http://www.w3.org/2000/svg">
<g clip-path="url(#clip0_7320_1108)">
<path d="M18.4963 8.69682L19.9184 7.37065C20.4781 6.84855 21.1352 6.44184 21.8522 6.17373C22.5691 5.90563 23.3318 5.78138 24.0968 5.8081C24.8617 5.83481 25.6139 6.01196 26.3104 6.32942C27.0069 6.64688 27.634 7.09844 28.1559 7.65831C28.678 8.21802 29.0847 8.87511 29.3528 9.59203C29.6209 10.309 29.7452 11.0717 29.7185 11.8366C29.6917 12.6016 29.5146 13.3538 29.1971 14.0503C28.8797 14.7467 28.4281 15.3739 27.8683 15.8958L24.7163 18.8351L23.3794 20.0817C22.8191 20.6043 22.1611 21.0113 21.4433 21.2794C20.7255 21.5475 19.9618 21.6715 19.1961 21.6442C18.4303 21.6168 17.6774 21.4388 16.9805 21.1202C16.2836 20.8016 15.6564 20.3488 15.1347 19.7875C14.5946 19.2086 14.1786 18.5254 13.9121 17.7798C13.6456 17.0343 13.5343 16.2421 13.585 15.452" stroke="#1C1C1E" stroke-width="2" stroke-linecap="round" stroke-linejoin="round"/>
<path d="M14.6009 24.4004L13.1787 25.7266C12.6184 26.2492 11.9605 26.6563 11.2426 26.9244C10.5248 27.1925 9.76115 27.3164 8.99537 27.2891C8.22959 27.2618 7.47672 27.0837 6.77982 26.7651C6.08293 26.4466 5.45568 25.9937 4.93399 25.4324C3.88281 24.3013 3.32347 22.7992 3.37877 21.2559C3.43406 19.7127 4.09948 18.2545 5.22893 17.2015L9.71775 13.0156C10.2775 12.4935 10.9345 12.0868 11.6515 11.8187C12.3684 11.5506 13.1311 11.4263 13.8961 11.453C14.661 11.4797 15.4132 11.6569 16.1097 11.9744C16.8062 12.2918 17.4333 12.7434 17.9552 13.3032C18.4976 13.8822 18.9156 14.5662 19.1834 15.313C19.4511 16.0598 19.563 16.8535 19.5121 17.6452" stroke="#1C1C1E" stroke-width="2" stroke-linecap="round" stroke-linejoin="round"/>
</g>
<defs>
<clipPath id="clip0_7320_1108">
<rect width="32" height="32" fill="white" transform="translate(1.11678) rotate(2)"/>
</clipPath>
</defs>
</svg>
