<svg width="23" height="23" viewBox="0 0 23 23" fill="none" xmlns="http://www.w3.org/2000/svg">
<path d="M4.94678 10.7222C4.7484 10.7222 4.5874 10.8832 4.5874 11.0815C4.5874 14.3626 6.8874 17.1115 9.95826 17.8148V19.6843H8.76981C8.14018 19.6843 7.62771 20.1964 7.62771 20.826V21.9214C7.62771 22.1197 7.78871 22.2807 7.98709 22.2807H15.0125C15.2109 22.2807 15.3719 22.1197 15.3719 21.9214V20.826C15.3719 20.1964 14.8598 19.6843 14.2298 19.6843H13.0413V17.8148C16.1122 17.1115 18.4122 14.3626 18.4122 11.0815C18.4122 10.8832 18.2512 10.7222 18.0528 10.7222C17.8545 10.7222 17.6934 10.8832 17.6934 11.0815C17.6934 14.4967 14.9148 17.2754 11.4996 17.2754C8.08448 17.2754 5.30579 14.4967 5.30579 11.0815C5.30579 10.8832 5.14479 10.7222 4.94642 10.7222H4.94678ZM14.6535 20.826V21.562H8.34682V20.826C8.34682 20.5928 8.53657 20.403 8.77017 20.403H14.2302C14.4634 20.403 14.6535 20.5928 14.6535 20.826ZM12.3233 17.9406V19.6828H10.6774V17.9406C10.9476 17.9729 11.2215 17.9941 11.5003 17.9941C11.7792 17.9941 12.0531 17.9726 12.3233 17.9406Z" fill="#F44B1B"/>
<path d="M6.77062 9.68179C6.77062 9.68359 6.77169 9.68503 6.77169 9.68718V10.973C6.77169 13.5803 8.89273 15.7013 11.5 15.7013C14.1073 15.7013 16.2283 13.5803 16.2283 10.973V9.68718C16.2283 9.68539 16.2294 9.68395 16.2294 9.68179C16.2294 9.67964 16.2283 9.67856 16.2283 9.6764V7.49104C16.2283 7.48925 16.2294 7.48781 16.2294 7.48565C16.2294 7.4835 16.2283 7.48242 16.2283 7.48026V5.44692C16.2283 5.402 16.2229 5.35851 16.2215 5.31359C16.2218 5.3064 16.2254 5.30029 16.2254 5.29311C16.2254 5.28089 16.2197 5.27082 16.2186 5.25897C16.119 2.73903 14.0436 0.718262 11.4996 0.718262C8.95562 0.718262 6.88023 2.73903 6.78068 5.25897C6.7796 5.27082 6.77385 5.28089 6.77385 5.29311C6.77385 5.30029 6.77744 5.3064 6.7778 5.31359C6.77673 5.35815 6.77098 5.40164 6.77098 5.44692V7.48026C6.77098 7.48206 6.7699 7.4835 6.7699 7.48565C6.7699 7.48781 6.77098 7.48889 6.77098 7.49104V9.6764C6.77098 9.6782 6.7699 9.67964 6.7699 9.68179H6.77062ZM11.5 1.43773C13.5369 1.43773 15.2199 2.96543 15.4729 4.93445H10.8387C10.6404 4.93445 10.4794 5.09545 10.4794 5.29382C10.4794 5.4922 10.6404 5.6532 10.8387 5.6532H15.5095V7.12664H10.8387C10.6404 7.12664 10.4794 7.28764 10.4794 7.48601C10.4794 7.68439 10.6404 7.84539 10.8387 7.84539H15.5095V9.32242H10.8387C10.6404 9.32242 10.4794 9.48342 10.4794 9.68179C10.4794 9.88017 10.6404 10.0412 10.8387 10.0412H15.5095V10.9727C15.5095 11.1581 15.4923 11.3392 15.4679 11.5182H10.8387C10.6404 11.5182 10.4794 11.6792 10.4794 11.8776C10.4794 12.0759 10.6404 12.2369 10.8387 12.2369H15.3022C14.771 13.8297 13.2688 14.9826 11.5 14.9826C9.73115 14.9826 8.2286 13.8297 7.6978 12.2369H9.42999C9.62837 12.2369 9.78937 12.0759 9.78937 11.8776C9.78937 11.6792 9.62837 11.5182 9.42999 11.5182H7.53177C7.50734 11.3392 7.49008 11.1581 7.49008 10.9727V10.0412H9.42963C9.62801 10.0412 9.78901 9.88017 9.78901 9.68179C9.78901 9.48342 9.62801 9.32242 9.42963 9.32242H7.49008V7.84539H9.42963C9.62801 7.84539 9.78901 7.68439 9.78901 7.48601C9.78901 7.28764 9.62801 7.12664 9.42963 7.12664H7.49008V5.6532H9.42963C9.62801 5.6532 9.78901 5.4922 9.78901 5.29382C9.78901 5.09545 9.62801 4.93445 9.42963 4.93445H7.52638C7.77938 2.96543 9.46269 1.43773 11.4993 1.43773H11.5Z" fill="#F44B1B"/>
</svg>
