<svg width="69" height="76" viewBox="0 0 69 76" fill="none" xmlns="http://www.w3.org/2000/svg">
<g clip-path="url(#clip0_6601_62760)">
<path d="M61.6968 0.43396H7.30233C5.18726 0.43396 3.47266 2.14559 3.47266 4.257V37.0527C3.47266 39.1642 5.18726 40.8758 7.30233 40.8758H61.6968C63.8119 40.8758 65.5265 39.1642 65.5265 37.0527V4.257C65.5265 2.14559 63.8119 0.43396 61.6968 0.43396Z" stroke="white" stroke-width="2" stroke-miterlimit="10"/>
<path d="M41.6921 5.2981H8.5V36.4066H41.6921V5.2981Z" stroke="white" stroke-width="2" stroke-miterlimit="10"/>
<path d="M49.6777 6.50745H58.9368" stroke="white" stroke-width="2" stroke-miterlimit="10"/>
<path d="M49.6777 11.2375H52.8406" stroke="white" stroke-width="2" stroke-miterlimit="10"/>
<path d="M49.6777 15.97H58.9368" stroke="white" stroke-width="2" stroke-miterlimit="10"/>
<path d="M49.6777 20.7024H52.8406" stroke="white" stroke-width="2" stroke-miterlimit="10"/>
<path d="M49.6777 25.4349H58.9368" stroke="white" stroke-width="2" stroke-miterlimit="10"/>
<path d="M49.6777 34.8999H58.9368" stroke="white" stroke-width="2" stroke-miterlimit="10"/>
<path d="M49.6777 30.1674H52.8406" stroke="white" stroke-width="2" stroke-miterlimit="10"/>
<path d="M28.0508 31.7498H31.4823" stroke="white" stroke-width="2" stroke-miterlimit="10"/>
<path d="M35.5959 35.1144C35.5959 35.1144 35.3394 33.3175 35.2124 31.9765C34.8241 27.8755 33.3684 25.0253 30.396 24.5084C29.1748 24.2963 26.2952 24.1329 25.1327 24.1329C23.9286 24.1329 20.922 24.3207 19.7032 24.5084C16.726 24.9692 15.2434 27.8706 14.8868 31.9765C14.772 33.3126 14.5938 35.1144 14.5938 35.1144" stroke="white" stroke-width="2" stroke-miterlimit="10"/>
<path d="M28.6323 24.8278C28.2317 26.4907 26.7907 27.7195 25.0737 27.7195C23.3567 27.7195 21.8962 26.4736 21.5078 24.7937" stroke="white" stroke-width="2" stroke-miterlimit="10"/>
<path d="M20.5303 14.8972C22.9214 15.8456 24.7679 15.3239 26.2626 13.4148C27.198 14.5266 28.2141 14.7363 29.5647 14.451C29.6771 14.885 29.7674 15.3556 29.7674 15.8456C29.7674 18.7276 27.6768 21.9532 25.0976 21.9532C22.5184 21.9532 20.4277 18.7276 20.4277 15.8456C20.4277 15.5141 20.4815 15.202 20.5328 14.8972H20.5303Z" stroke="white" stroke-width="2" stroke-miterlimit="10"/>
<path d="M15.5195 24.272C15.5195 24.272 17.1804 21.9362 17.261 18.6154C17.3416 15.2946 17.8862 8.02161 25.0937 8.02161C32.3012 8.02161 32.8459 15.2971 32.9265 18.6154C33.0071 21.9362 34.6679 24.272 34.6679 24.272" stroke="white" stroke-width="2" stroke-miterlimit="10"/>
<path d="M14.3872 52.0743C14.3872 54.393 12.5041 56.9847 10.1838 56.9847C7.86355 56.9847 5.98047 54.3905 5.98047 52.0743C5.98047 49.758 7.86355 48.1635 10.1838 48.1635C12.5041 48.1635 14.3872 49.7556 14.3872 52.0743Z" stroke="white" stroke-width="2" stroke-linecap="round" stroke-linejoin="round"/>
<path d="M4.57617 71.7063L5.07686 64.5796" stroke="white" stroke-width="2" stroke-linecap="round" stroke-linejoin="round"/>
<path d="M19.8134 71.7064L18.9415 64.4578C18.9415 61.3247 16.8093 59.1767 14.2448 58.7866C13.1896 58.6257 11.2479 58.5013 10.2441 58.5013C9.2061 58.5013 7.15205 58.6452 6.10182 58.7866C3.53243 59.1353 1.40511 61.3272 1.40511 64.4578L0.611328 71.7064" stroke="white" stroke-width="2" stroke-linecap="round" stroke-linejoin="round"/>
<path d="M15.2695 64.5796L15.7702 71.7063" stroke="white" stroke-width="2" stroke-linecap="round" stroke-linejoin="round"/>
<path d="M62.9634 52.0743C62.9634 54.393 61.0803 56.9847 58.76 56.9847C56.4397 56.9847 54.5566 54.3905 54.5566 52.0743C54.5566 49.758 56.4397 48.1635 58.76 48.1635C61.0803 48.1635 62.9634 49.7556 62.9634 52.0743Z" stroke="white" stroke-width="2" stroke-linecap="round" stroke-linejoin="round"/>
<path d="M53.1504 71.7063L53.6511 64.5796" stroke="white" stroke-width="2" stroke-linecap="round" stroke-linejoin="round"/>
<path d="M68.3896 71.7064L67.5176 64.4577C67.5176 61.3247 65.3854 59.1767 62.8209 58.7865C61.7658 58.6256 59.8241 58.5013 58.8203 58.5013C57.7823 58.5013 55.7282 58.6451 54.678 58.7865C52.1086 59.1352 49.9813 61.3271 49.9813 64.4577L49.1875 71.7064" stroke="white" stroke-width="2" stroke-linecap="round" stroke-linejoin="round"/>
<path d="M63.8438 64.5796L64.3444 71.7063" stroke="white" stroke-width="2" stroke-linecap="round" stroke-linejoin="round"/>
<path d="M38.6762 55.7584C38.6762 58.077 36.7932 60.6688 34.4729 60.6688C32.1526 60.6688 30.2695 58.0746 30.2695 55.7584C30.2695 53.4421 32.1526 51.8475 34.4729 51.8475C36.7932 51.8475 38.6762 53.4397 38.6762 55.7584Z" stroke="white" stroke-width="2" stroke-linecap="round" stroke-linejoin="round"/>
<path d="M44.1005 75.3905L43.2286 68.1419C43.2286 65.0088 41.0964 62.8608 38.5319 62.4707C37.4768 62.3098 35.5351 62.1854 34.5312 62.1854C33.4932 62.1854 31.4392 62.3293 30.3889 62.4707C27.8195 62.8193 25.6922 65.0113 25.6922 68.1419L24.8984 75.3905" stroke="white" stroke-width="2" stroke-linecap="round" stroke-linejoin="round"/>
</g>
<defs>
<clipPath id="clip0_6601_62760">
<rect width="69" height="76" fill="white"/>
</clipPath>
</defs>
</svg>
