<svg width="42" height="47" viewBox="0 0 42 47" fill="none" xmlns="http://www.w3.org/2000/svg">
<g clip-path="url(#clip0_7149_10292)">
<path d="M12.6684 12.8735L0.875214 45.7552L30.9823 32.8612" stroke="white" stroke-width="3" stroke-linecap="round" stroke-linejoin="round"/>
<path d="M31.8102 32.3045C29.7216 34.5857 23.8632 31.8873 18.718 26.2679C13.5728 20.6485 11.1021 14.2502 13.1907 11.9691C15.2794 9.68798 21.1377 12.3864 26.2829 18.0058C31.4281 23.6251 33.8989 30.0234 31.8102 32.3045Z" stroke="white" stroke-width="3" stroke-linecap="round" stroke-linejoin="round"/>
<path d="M20.2582 37.4512C18.3351 35.7682 16.2847 33.4314 14.4126 30.6356C12.222 27.3809 10.6428 24.0843 9.815 21.2886" stroke="white" stroke-width="3" stroke-linecap="round" stroke-linejoin="round"/>
<path d="M13.6995 40.2612C12.4005 38.8563 11.0887 37.1872 9.84059 35.3373C8.6307 33.543 7.59912 31.7348 6.7713 29.9961" stroke="white" stroke-width="3" stroke-linecap="round" stroke-linejoin="round"/>
<path d="M12.6684 12.8735L0.875214 45.7552L30.9823 32.8612" stroke="white" stroke-width="3" stroke-linecap="round" stroke-linejoin="round"/>
<path d="M7.38278 42.973C6.70779 42.1106 6.0328 41.1926 5.37055 40.219C4.79745 39.3705 4.26255 38.5081 3.77859 37.6597" stroke="white" stroke-width="3" stroke-linecap="round" stroke-linejoin="round"/>
<path d="M17.1379 15.1547C17.1379 15.1547 20.2581 4.05505 23.6203 4.29151C25.7726 4.44451 25.3269 7.96357 23.5566 8.56167C20.2708 9.6605 17.953 5.30689 19.5959 1.25928" stroke="white" stroke-width="3" stroke-linecap="round" stroke-linejoin="round"/>
<path d="M25.5186 28.2155C25.5186 28.2155 30.753 22.61 39.184 23.0412" stroke="white" stroke-width="3" stroke-linecap="round" stroke-linejoin="round"/>
<path d="M23.532 23.7783C23.532 23.7783 27.8239 17.7417 35.1214 17.7417" stroke="white" stroke-width="3" stroke-linecap="round" stroke-linejoin="round"/>
<path d="M20.9846 20.8853C20.9846 20.8853 22.0035 13.9863 28.5878 12.4424" stroke="white" stroke-width="3" stroke-linecap="round" stroke-linejoin="round"/>
<path d="M35.4645 4.23584C34.7003 6.36397 34.9423 8.75637 36.114 10.648C34.2928 9.8552 31.9749 10.0778 30.2429 11.3574C31.007 9.22928 30.765 6.83688 29.5934 4.94521C31.5419 5.77977 33.7324 5.5155 35.4645 4.23584Z" stroke="white" stroke-width="3" stroke-linecap="round" stroke-linejoin="round"/>
<path d="M36.5349 16.0448C36.5349 14.7512 37.4901 13.708 38.6745 13.708C39.8589 13.708 40.8141 14.7512 40.8141 16.0448C40.8141 17.3383 39.8589 18.3815 38.6745 18.3815C37.4901 18.3815 36.5349 17.3383 36.5349 16.0448Z" stroke="white" stroke-width="3" stroke-linecap="round" stroke-linejoin="round"/>
<path d="M13.6994 7.57427V1.59326" stroke="white" stroke-width="3" stroke-linecap="round" stroke-linejoin="round"/>
<path d="M16.4374 4.5835L10.9611 4.5835" stroke="white" stroke-width="3" stroke-linecap="round" stroke-linejoin="round"/>
<path d="M36.4583 31.6789L40.3299 27.4365" stroke="white" stroke-width="3" stroke-linecap="round" stroke-linejoin="round"/>
<path d="M40.3299 31.6789L36.4583 27.4365" stroke="white" stroke-width="3" stroke-linecap="round" stroke-linejoin="round"/>
</g>
<defs>
<clipPath id="clip0_7149_10292">
<rect width="41.1998" height="45.9007" fill="white" transform="translate(0.238098 0.549805)"/>
</clipPath>
</defs>
</svg>
