<svg width="81" height="82" viewBox="0 0 81 82" fill="none" xmlns="http://www.w3.org/2000/svg">
<g clip-path="url(#clip0_6662_56116)">
<path d="M24.2589 22.7199L1.35938 80.7454L59.82 57.9917" stroke="white" stroke-width="3" stroke-linecap="round" stroke-linejoin="round"/>
<path d="M61.4275 57.0098C57.3718 61.0353 45.9962 56.2734 36.0055 46.3571C26.0148 36.4407 21.2172 25.1498 25.2729 21.1243C29.3285 17.0989 40.7041 21.8607 50.6948 31.7771C60.6856 41.6934 65.4831 52.9843 61.4275 57.0098Z" stroke="white" stroke-width="3" stroke-linecap="round" stroke-linejoin="round"/>
<path d="M38.997 66.0921C35.2628 63.1221 31.2813 58.9984 27.6461 54.0648C23.3926 48.3212 20.3262 42.5039 18.7188 37.5703" stroke="white" stroke-width="3" stroke-linecap="round" stroke-linejoin="round"/>
<path d="M26.2615 71.0501C23.739 68.5711 21.1919 65.6256 18.7684 62.3611C16.4191 59.1947 14.416 56.0038 12.8086 52.9356" stroke="white" stroke-width="3" stroke-linecap="round" stroke-linejoin="round"/>
<path d="M24.2589 22.7199L1.35938 80.7454L59.82 57.9917" stroke="white" stroke-width="3" stroke-linecap="round" stroke-linejoin="round"/>
<path d="M13.9945 75.8364C12.6839 74.3146 11.3732 72.6946 10.0873 70.9764C8.97446 69.4792 7.93582 67.9574 6.99609 66.4601" stroke="white" stroke-width="3" stroke-linecap="round" stroke-linejoin="round"/>
<path d="M32.9375 26.7457C32.9375 26.7457 38.9962 7.15843 45.5248 7.5757C49.7041 7.8457 48.8386 14.0557 45.4012 15.1112C39.021 17.0502 34.5202 9.36752 37.7103 2.22479" stroke="white" stroke-width="3" stroke-linecap="round" stroke-linejoin="round"/>
<path d="M49.2109 49.7935C49.2109 49.7935 59.3748 39.9017 75.7457 40.6626" stroke="white" stroke-width="3" stroke-linecap="round" stroke-linejoin="round"/>
<path d="M45.3516 41.9635C45.3516 41.9635 53.6854 31.3107 67.8554 31.3107" stroke="white" stroke-width="3" stroke-linecap="round" stroke-linejoin="round"/>
<path d="M40.4062 36.8581C40.4062 36.8581 42.3846 24.6836 55.1698 21.959" stroke="white" stroke-width="3" stroke-linecap="round" stroke-linejoin="round"/>
<path d="M68.5214 7.47754C67.0376 11.233 67.5075 15.4548 69.7826 18.793C66.2463 17.3939 61.7455 17.7866 58.3823 20.0448C59.8661 16.2894 59.3962 12.0675 57.1211 8.72936C60.9047 10.2021 65.1582 9.73572 68.5214 7.47754Z" stroke="white" stroke-width="3" stroke-linecap="round" stroke-linejoin="round"/>
<path d="M70.6016 28.3163C70.6016 26.0336 72.4563 24.1927 74.7561 24.1927C77.056 24.1927 78.9107 26.0336 78.9107 28.3163C78.9107 30.5991 77.056 32.44 74.7561 32.44C72.4563 32.44 70.6016 30.5991 70.6016 28.3163Z" stroke="white" stroke-width="3" stroke-linecap="round" stroke-linejoin="round"/>
<path d="M26.2578 13.3683V2.81378" stroke="white" stroke-width="3" stroke-linecap="round" stroke-linejoin="round"/>
<path d="M31.5751 8.09119H20.9414" stroke="white" stroke-width="3" stroke-linecap="round" stroke-linejoin="round"/>
<path d="M70.4531 55.9055L77.9709 48.4191" stroke="white" stroke-width="3" stroke-linecap="round" stroke-linejoin="round"/>
<path d="M77.9709 55.9055L70.4531 48.4191" stroke="white" stroke-width="3" stroke-linecap="round" stroke-linejoin="round"/>
</g>
<defs>
<clipPath id="clip0_6662_56116">
<rect width="80" height="81" fill="white" transform="translate(0.121094 0.972778)"/>
</clipPath>
</defs>
</svg>
