<svg width="72" height="83" viewBox="0 0 72 83" fill="none" xmlns="http://www.w3.org/2000/svg">
<g clip-path="url(#clip0_6601_62340)">
<path d="M36.6521 75.3792H31.7227" stroke="white" stroke-width="2" stroke-linecap="round" stroke-linejoin="round"/>
<path d="M40.4072 21.5045H27.9688" stroke="white" stroke-width="2" stroke-linecap="round" stroke-linejoin="round"/>
<path d="M13.7148 69.0409H54.657" stroke="white" stroke-width="2" stroke-linecap="round" stroke-linejoin="round"/>
<path d="M54.6562 47.8634H61.4246C64.2852 47.8634 66.5839 45.5746 66.5839 42.7828C66.5839 39.9658 64.2597 37.7021 61.4246 37.7021H54.6562" stroke="white" stroke-width="2" stroke-linecap="round" stroke-linejoin="round"/>
<path d="M54.6562 47.8633H65.5367C68.3973 47.8633 70.696 50.1521 70.696 52.9439C70.696 55.7609 68.3718 58.0245 65.5367 58.0245H54.6562" stroke="white" stroke-width="2" stroke-linecap="round" stroke-linejoin="round"/>
<path d="M54.6562 58.0497H61.4246C64.2852 58.0497 66.5839 60.3385 66.5839 63.1303C66.5839 65.9473 64.2597 68.2109 61.4246 68.2109H54.6562" stroke="white" stroke-width="2" stroke-linecap="round" stroke-linejoin="round"/>
<path d="M54.6562 68.2109H58.0021C60.8627 68.2109 63.1614 70.4997 63.1614 73.2915C63.1614 76.1085 60.8372 78.3721 58.0021 78.3721H54.6562" stroke="white" stroke-width="2" stroke-linecap="round" stroke-linejoin="round"/>
<path d="M13.334 77.7685C13.334 77.7685 7.53622 77.7181 4.70118 73.0651C-0.17715 64.9915 0.384751 56.0879 4.98213 48.4418C8.94098 41.8521 9.32409 35.0109 9.78383 32.1688C9.93707 31.1878 10.8821 30.5591 11.8526 30.7854C13.5894 31.213 15.6838 32.6718 16.4756 34.9354C18.902 41.8521 13.7171 47.2597 13.7171 54.0003V78.3972C13.7171 80.2333 15.2241 81.7424 17.1141 81.7424H51.2624C53.1269 81.7424 54.6593 80.2585 54.6593 78.3972V18.1342C54.6593 16.2982 53.1524 14.7891 51.2624 14.7891H17.1141C15.2496 14.7891 13.7171 16.273 13.7171 18.1342V31.5903" stroke="white" stroke-width="2" stroke-linecap="round" stroke-linejoin="round"/>
<path d="M45.4618 14.4118L44.3125 6.76575L51.3874 7.99817L55.9081 1.25757L59.4838 8.22454L67.5292 6.76575L63.1617 14.2357L70.3898 19.1151L61.7314 20.423L62.3444 29.0248L54.6566 24.2461" stroke="white" stroke-width="2" stroke-linecap="round" stroke-linejoin="round"/>
</g>
<defs>
<clipPath id="clip0_6601_62340">
<rect width="72" height="83" fill="white"/>
</clipPath>
</defs>
</svg>
