<svg width="36" height="28" viewBox="0 0 36 28" fill="none" xmlns="http://www.w3.org/2000/svg">
<path d="M3.41169 25.6422C1.35119 23.455 0.244873 21 0.244873 17.0208C0.244873 10.0218 5.15789 3.74744 12.3061 0.646484L14.0914 3.4017C7.42095 7.0109 6.11723 11.6922 5.59615 14.6442C6.67013 14.0888 8.07603 13.8934 9.45429 14.0212C13.063 14.3556 15.9073 17.3182 15.9073 21C15.9073 24.866 12.7732 28 8.90719 28C6.76107 28 4.70879 27.0192 3.41169 25.6422ZM23.4117 25.6422C21.3513 23.455 20.2449 21 20.2449 17.0208C20.2449 10.0218 25.1579 3.74744 32.3061 0.646484L34.0915 3.4017C27.4209 7.0109 26.1173 11.6922 25.5961 14.6442C26.6701 14.0888 28.0761 13.8934 29.4543 14.0212C33.0631 14.3556 35.9073 17.3182 35.9073 21C35.9073 24.866 32.7733 28 28.9073 28C26.7611 28 24.7089 27.0192 23.4117 25.6422Z" fill="white"/>
</svg>
