<svg width="96" height="64" viewBox="0 0 96 64" fill="none" xmlns="http://www.w3.org/2000/svg">
<path d="M45.9008 0V14C37.7708 14 31.1308 15.63 26.0008 18.9C20.8708 22.17 17.6308 25.87 16.3008 30C18.9708 27.6 22.6308 26.4 27.3008 26.4C30.1008 26.4 32.8708 27 35.6008 28.2C38.3308 29.4 40.5708 31.3 42.3008 33.9C44.0308 36.5 44.9008 39.8 44.9008 43.8C44.9008 49.8 42.8308 54.63 38.7008 58.3C34.5708 61.97 29.5008 63.8 23.5008 63.8C18.9708 63.8 14.9708 62.57 11.5008 60.1C8.03078 57.63 5.30078 54.4 3.30078 50.4C1.30078 46.4 0.300781 42.2 0.300781 37.8C0.300781 28.73 2.43078 21.47 6.70078 16C10.9708 10.54 16.5708 6.5 23.5008 3.9C30.4308 1.3 37.9008 0 45.9008 0ZM95.7008 0V14C87.7008 14 81.1708 15.63 76.1008 18.9C71.0308 22.17 67.7708 25.87 66.3008 30C69.1008 27.6 72.7008 26.4 77.1008 26.4C80.1708 26.4 83.0708 27 85.8008 28.2C88.5308 29.4 90.7308 31.3 92.4008 33.9C94.0708 36.5 94.9008 39.8 94.9008 43.8C94.9008 49.8 92.8708 54.63 88.8008 58.3C84.7308 61.97 79.7008 63.8 73.7008 63.8C69.1708 63.8 65.1708 62.57 61.7008 60.1C58.2308 57.63 55.5008 54.4 53.5008 50.4C51.5008 46.4 50.5008 42.2 50.5008 37.8C50.5008 28.73 52.6308 21.47 56.9008 16C61.1708 10.54 66.7708 6.5 73.7008 3.9C80.6308 1.3 87.9708 0 95.7008 0Z" fill="#F47F21"/>
</svg>
