<svg width="96" height="64" viewBox="0 0 96 64" fill="none" xmlns="http://www.w3.org/2000/svg">
<path d="M45.9008 0.100098V14.1001C37.7708 14.1001 31.1308 15.7301 26.0008 19.0001C20.8708 22.2701 17.6308 25.9701 16.3008 30.1001C18.9708 27.7001 22.6308 26.5001 27.3008 26.5001C30.1008 26.5001 32.8708 27.1001 35.6008 28.3001C38.3308 29.5001 40.5708 31.4001 42.3008 34.0001C44.0308 36.6001 44.9008 39.9001 44.9008 43.9001C44.9008 49.9001 42.8308 54.7301 38.7008 58.4001C34.5708 62.0701 29.5008 63.9001 23.5008 63.9001C18.9708 63.9001 14.9708 62.6701 11.5008 60.2001C8.03078 57.7301 5.30078 54.5001 3.30078 50.5001C1.30078 46.5001 0.300781 42.3001 0.300781 37.9001C0.300781 28.8301 2.43078 21.5701 6.70078 16.1001C10.9708 10.6401 16.5708 6.6001 23.5008 4.0001C30.4308 1.4001 37.9008 0.100098 45.9008 0.100098ZM95.7008 0.100098V14.1001C87.7008 14.1001 81.1708 15.7301 76.1008 19.0001C71.0308 22.2701 67.7708 25.9701 66.3008 30.1001C69.1008 27.7001 72.7008 26.5001 77.1008 26.5001C80.1708 26.5001 83.0708 27.1001 85.8008 28.3001C88.5308 29.5001 90.7308 31.4001 92.4008 34.0001C94.0708 36.6001 94.9008 39.9001 94.9008 43.9001C94.9008 49.9001 92.8708 54.7301 88.8008 58.4001C84.7308 62.0701 79.7008 63.9001 73.7008 63.9001C69.1708 63.9001 65.1708 62.6701 61.7008 60.2001C58.2308 57.7301 55.5008 54.5001 53.5008 50.5001C51.5008 46.5001 50.5008 42.3001 50.5008 37.9001C50.5008 28.8301 52.6308 21.5701 56.9008 16.1001C61.1708 10.6401 66.7708 6.6001 73.7008 4.0001C80.6308 1.4001 87.9708 0.100098 95.7008 0.100098Z" fill="#FFC51E"/>
</svg>
