<svg width="40" height="41" viewBox="0 0 40 41" fill="none" xmlns="http://www.w3.org/2000/svg">
<g clip-path="url(#clip0_6601_55132)">
<path d="M19.9988 40.4976C31.0438 40.4976 39.9976 31.5438 39.9976 20.4988C39.9976 9.45376 31.0438 0.5 19.9988 0.5C8.95376 0.5 0 9.45376 0 20.4988C0 31.5438 8.95376 40.4976 19.9988 40.4976Z" fill="#EE6C05"/>
<path d="M28.5362 28.5836H29.1152V11.5836H11.1152V28.5836H20.7459H28.5362Z" stroke="white" stroke-width="1.5" stroke-linecap="round" stroke-linejoin="round"/>
<path d="M15.1152 25.5836L26.1152 15.5836" stroke="white" stroke-width="1.5" stroke-linecap="round" stroke-linejoin="round"/>
<mask id="path-4-inside-1_6601_55132" fill="white">
<path d="M18.0889 26.5836L18.1152 25.7766L14.8529 25.6216L15.2195 21.6745L14.5609 21.5836L14.1152 26.3939L18.0889 26.5836Z"/>
</mask>
<path d="M18.0889 26.5836L18.1152 25.7766L14.8529 25.6216L15.2195 21.6745L14.5609 21.5836L14.1152 26.3939L18.0889 26.5836Z" fill="#3F3E40"/>
<path d="M18.0889 26.5836L18.0173 28.0819L19.5384 28.1545L19.5881 26.6326L18.0889 26.5836ZM18.1152 25.7766L19.6144 25.8255L19.6627 24.3484L18.1864 24.2783L18.1152 25.7766ZM14.8529 25.6216L13.3593 25.4828L13.2142 27.0454L14.7817 27.1199L14.8529 25.6216ZM15.2195 21.6745L16.7131 21.8132L16.8458 20.3846L15.4245 20.1886L15.2195 21.6745ZM14.5609 21.5836L14.7659 20.0977L13.212 19.8833L13.0673 21.4452L14.5609 21.5836ZM14.1152 26.3939L12.6216 26.2555L12.4769 27.8174L14.0437 27.8922L14.1152 26.3939ZM18.0889 26.5836L19.5881 26.6326L19.6144 25.8255L18.1152 25.7766L16.616 25.7276L16.5897 26.5347L18.0889 26.5836ZM18.1152 25.7766L18.1864 24.2783L14.9241 24.1233L14.8529 25.6216L14.7817 27.1199L18.044 27.2749L18.1152 25.7766ZM14.8529 25.6216L16.3465 25.7603L16.7131 21.8132L15.2195 21.6745L13.7259 21.5357L13.3593 25.4828L14.8529 25.6216ZM15.2195 21.6745L15.4245 20.1886L14.7659 20.0977L14.5609 21.5836L14.3559 23.0695L15.0145 23.1604L15.2195 21.6745ZM14.5609 21.5836L13.0673 21.4452L12.6216 26.2555L14.1152 26.3939L15.6088 26.5323L16.0545 21.722L14.5609 21.5836ZM14.1152 26.3939L14.0437 27.8922L18.0173 28.0819L18.0889 26.5836L18.1604 25.0853L14.1868 24.8956L14.1152 26.3939Z" fill="white" mask="url(#path-4-inside-1_6601_55132)"/>
<mask id="path-6-inside-2_6601_55132" fill="white">
<path d="M26.5582 18.5836L25.7349 18.5109L26.1932 15.3533L22.1152 15.2293L22.1482 14.5836L27.1152 14.7354L26.5582 18.5836Z"/>
</mask>
<path d="M26.5582 18.5836L25.7349 18.5109L26.1932 15.3533L22.1152 15.2293L22.1482 14.5836L27.1152 14.7354L26.5582 18.5836Z" fill="#3F3E40"/>
<path d="M26.5582 18.5836L26.4262 20.0778L27.8394 20.2026L28.0427 18.7985L26.5582 18.5836ZM25.7349 18.5109L24.2504 18.2955L24.0226 19.8656L25.603 20.0051L25.7349 18.5109ZM26.1932 15.3533L27.6776 15.5687L27.9191 13.905L26.2388 13.854L26.1932 15.3533ZM22.1152 15.2293L20.6172 15.1529L20.5392 16.682L22.0696 16.7286L22.1152 15.2293ZM22.1482 14.5836L22.194 13.0843L20.725 13.0394L20.6501 14.5072L22.1482 14.5836ZM27.1152 14.7354L28.5998 14.9503L28.8405 13.2874L27.1611 13.2361L27.1152 14.7354ZM26.5582 18.5836L26.6901 17.0894L25.8668 17.0167L25.7349 18.5109L25.603 20.0051L26.4262 20.0778L26.5582 18.5836ZM25.7349 18.5109L27.2193 18.7264L27.6776 15.5687L26.1932 15.3533L24.7087 15.1378L24.2504 18.2955L25.7349 18.5109ZM26.1932 15.3533L26.2388 13.854L22.1608 13.73L22.1152 15.2293L22.0696 16.7286L26.1476 16.8526L26.1932 15.3533ZM22.1152 15.2293L23.6133 15.3057L23.6462 14.66L22.1482 14.5836L20.6501 14.5072L20.6172 15.1529L22.1152 15.2293ZM22.1482 14.5836L22.1023 16.0829L27.0694 16.2347L27.1152 14.7354L27.1611 13.2361L22.194 13.0843L22.1482 14.5836ZM27.1152 14.7354L25.6307 14.5205L25.0736 18.3687L26.5582 18.5836L28.0427 18.7985L28.5998 14.9503L27.1152 14.7354Z" fill="white" mask="url(#path-6-inside-2_6601_55132)"/>
</g>
<defs>
<clipPath id="clip0_6601_55132">
<rect width="40" height="40" fill="white" transform="translate(0 0.5)"/>
</clipPath>
</defs>
</svg>
