<svg width="21" height="20" viewBox="0 0 21 20" fill="none" xmlns="http://www.w3.org/2000/svg">
<path d="M9.89923 0.345362C10.0489 -0.115294 10.7006 -0.115294 10.8503 0.345361L12.9567 6.82814C13.0236 7.03415 13.2156 7.17363 13.4322 7.17363H20.2486C20.733 7.17363 20.9343 7.79344 20.5425 8.07814L15.0279 12.0847C14.8527 12.212 14.7793 12.4377 14.8463 12.6437L16.9527 19.1265C17.1023 19.5872 16.5751 19.9702 16.1832 19.6855L10.6686 15.679C10.4934 15.5516 10.2561 15.5516 10.0809 15.679L4.56628 19.6855C4.17443 19.9702 3.64719 19.5872 3.79686 19.1265L5.90324 12.6437C5.97018 12.4377 5.89685 12.212 5.72161 12.0847L0.207027 8.07814C-0.184829 7.79344 0.016558 7.17363 0.50092 7.17363H7.31732C7.53393 7.17363 7.72591 7.03415 7.79284 6.82814L9.89923 0.345362Z" fill="#FFC51E"/>
</svg>
