<svg width="60" height="52" viewBox="0 0 60 52" fill="none" xmlns="http://www.w3.org/2000/svg">
<path d="M56.3005 26.2383V47.0704C56.3005 48.9344 54.6884 50.4441 52.6981 50.4441H7.66875C5.67846 50.4441 4.06641 48.9344 4.06641 47.0704L4.06641 26.2383" stroke="black" stroke-width="3" stroke-linecap="round" stroke-linejoin="round"/>
<path d="M42.7926 11.6474L40.9914 4.05671C40.5411 2.58075 39.7824 1.52649 38.2897 1.52649L22.0791 1.52649C20.5886 1.52649 19.8276 2.58075 19.3773 4.05671L17.5762 11.6474" stroke="black" stroke-width="3" stroke-linecap="round" stroke-linejoin="round"/>
<path d="M20.2764 25.1418V30.2023C20.2764 31.1343 19.4703 31.8891 18.4752 31.8891H17.5746C16.5795 31.8891 15.7734 31.1343 15.7734 30.2023V25.1418H20.2764Z" stroke="black" stroke-width="3" stroke-linecap="round" stroke-linejoin="round"/>
<path d="M44.5947 25.142V30.2024C44.5947 31.1344 43.7887 31.8892 42.7936 31.8892H41.893C40.8978 31.8892 40.0918 31.1344 40.0918 30.2024V25.142H44.5947Z" stroke="black" stroke-width="3" stroke-linecap="round" stroke-linejoin="round"/>
<path d="M22.9805 4.90002L37.3899 4.90002" stroke="black" stroke-width="3" stroke-linecap="round" stroke-linejoin="round"/>
<path d="M36.4891 28.5154H23.8809" stroke="black" stroke-width="3" stroke-linecap="round" stroke-linejoin="round"/>
<path d="M48.1956 28.5156H50.8973C54.8757 28.5156 58.102 25.4941 58.102 21.7683V15.0211C58.102 13.1572 56.49 11.6475 54.4997 11.6475L5.86797 11.6475C3.87768 11.6475 2.26562 13.1572 2.26562 15.0211L2.26563 21.7683C2.26563 25.4941 5.49198 28.5156 9.47032 28.5156H12.1721" stroke="black" stroke-width="3" stroke-linecap="round" stroke-linejoin="round"/>
</svg>
