<svg width="40" height="40" viewBox="0 0 40 40" fill="none" xmlns="http://www.w3.org/2000/svg">
<g clip-path="url(#clip0_6662_60470)">
<path d="M19.9988 39.9976C31.0438 39.9976 39.9976 31.0438 39.9976 19.9988C39.9976 8.95376 31.0438 0 19.9988 0C8.95376 0 0 8.95376 0 19.9988C0 31.0438 8.95376 39.9976 19.9988 39.9976Z" fill="#EE6C05"/>
<path d="M20 28C24.4183 28 28 24.1944 28 19.5C28 14.8056 24.4183 11 20 11C15.5817 11 12 14.8056 12 19.5C12 24.1944 15.5817 28 20 28Z" stroke="white" stroke-miterlimit="10"/>
<path d="M19.9988 9.55794L22.5086 8L24.1689 10.451L27.0914 10.0506L27.6175 12.9699L30.4507 13.7998L29.7508 16.6827L32 18.5998L30.1949 20.944L31.4763 23.6182L28.8772 25.0208L28.9665 27.9862L26.0247 28.2071L24.9074 30.9517L22.1321 29.9519L19.9988 32L17.8679 29.9519L15.0926 30.9517L13.9753 28.2071L11.0335 27.9862L11.1228 25.0208L8.52368 23.6182L9.80513 20.944L8 18.5998L10.2492 16.6827L9.54932 13.7998L12.3825 12.9699L12.9062 10.0506L15.8311 10.451L17.4914 8L19.9988 9.55794Z" stroke="white" stroke-miterlimit="10"/>
</g>
<defs>
<clipPath id="clip0_6662_60470">
<rect width="40" height="40" fill="white"/>
</clipPath>
</defs>
</svg>
