<svg width="40" height="40" viewBox="0 0 40 40" fill="none" xmlns="http://www.w3.org/2000/svg">
<g clip-path="url(#clip0_6783_63919)">
<path d="M19.9988 39.9976C31.0438 39.9976 39.9976 31.0438 39.9976 19.9988C39.9976 8.95376 31.0438 0 19.9988 0C8.95376 0 0 8.95376 0 19.9988C0 31.0438 8.95376 39.9976 19.9988 39.9976Z" fill="#EE6C05"/>
<path d="M13.7722 13.8853C14.9757 13.8853 15.9505 12.9105 15.9505 11.7071C15.9505 10.5036 14.9757 9.52885 13.7722 9.52885C12.5688 9.52885 11.594 10.5036 11.594 11.7071C11.594 12.9105 12.5688 13.8853 13.7722 13.8853Z" stroke="white" stroke-linejoin="round"/>
<path d="M9.83447 16.6556C10.0776 16.9685 10.4506 17.1563 10.8622 17.1563C11.0523 17.1563 11.2497 17.1153 11.4447 17.0287C12.1066 16.7375 12.2823 15.9576 12.0656 15.2837C11.9236 14.8408 11.7937 14.6411 11.4495 14.6387C11.1799 14.6363 10.843 14.7903 10.5012 14.954C9.84891 15.2645 9.40363 15.4522 9.64432 16.2055C9.67561 16.297 9.70931 16.4968 9.83447 16.6556Z" stroke="white" stroke-linejoin="round"/>
<path d="M20.0783 13.3726C21.2793 13.3726 22.2565 12.3979 22.2565 11.1944C22.2565 9.99097 21.2817 9.01619 20.0783 9.01619C18.8748 9.01619 17.9 9.99097 17.9 11.1944C17.9 12.3979 18.8748 13.3726 20.0783 13.3726Z" stroke="white" stroke-linejoin="round"/>
<path d="M22.5574 29.1113V17.4307C22.5574 16.2561 23.0773 15.8012 23.3805 15.38C22.9016 14.9636 22.2685 14.8769 21.3443 14.8673H18.8195C17.8952 14.8769 17.2574 14.9636 16.7784 15.38C16.7784 15.38 17.6016 16.0226 17.6016 17.4307V29.1113C17.6016 29.9368 18.1648 30.346 18.846 30.346C19.5271 30.346 20.0807 29.7924 20.0807 29.1113C20.0807 29.7924 20.6343 30.346 21.3154 30.346C21.9966 30.346 22.5598 29.997 22.5598 29.1113H22.5574Z" stroke="white" stroke-linejoin="round"/>
<path d="M16.7832 15.3752C16.35 15.1995 15.6833 15.1561 14.9708 15.1561H12.5712C12.5712 15.1561 12.2872 15.1658 12.0441 15.2115" stroke="white" stroke-linejoin="round"/>
<path d="M26.3915 13.8853C25.188 13.8853 24.2133 12.9105 24.2133 11.7071C24.2133 10.5036 25.188 9.52885 26.3915 9.52885C27.5949 9.52885 28.5697 10.5036 28.5697 11.7071C28.5697 12.9105 27.5949 13.8853 26.3915 13.8853Z" stroke="white" stroke-linejoin="round"/>
<path d="M10.0656 16.8867C10.0439 16.9469 10.0271 17.0022 10.0174 17.0528C9.94042 17.3416 9.89709 17.6617 9.89709 18.0107V22.242C9.89709 22.9183 10.3929 23.3805 11.1896 23.3805V29.1209C11.1896 29.7996 11.7408 30.3484 12.4195 30.3484C13.0982 30.3484 13.6663 29.7948 13.6663 29.1137C13.6663 29.7948 14.2199 30.3484 14.901 30.3484C15.5822 30.3484 16.1454 29.9176 16.1454 29.1137V18.3284L17.5991 18.675" stroke="white" stroke-linejoin="round"/>
<path d="M30.3291 16.6556C30.086 16.9685 29.713 17.1563 29.3014 17.1563C29.1113 17.1563 28.9139 17.1153 28.7189 17.0287C28.057 16.7375 27.8813 15.9576 28.098 15.2837C28.24 14.8408 28.3699 14.6411 28.7141 14.6387C28.9837 14.6363 29.3206 14.7903 29.6624 14.954C30.3147 15.2645 30.76 15.4522 30.5193 16.2055C30.488 16.297 30.4543 16.4968 30.3291 16.6556Z" stroke="white" stroke-linejoin="round"/>
<path d="M23.3829 15.3752C23.8162 15.1995 24.4829 15.1561 25.1953 15.1561H27.595C27.595 15.1561 27.879 15.1658 28.1221 15.2115" stroke="white" stroke-linejoin="round"/>
<path d="M30.0981 16.8867C30.1198 16.9469 30.1366 17.0022 30.1463 17.0528C30.2233 17.3416 30.2666 17.6617 30.2666 18.0107V22.242C30.2666 22.9183 29.7708 23.3805 28.9741 23.3805V29.1209C28.9741 29.7996 28.4229 30.3484 27.7442 30.3484C27.0654 30.3484 26.4974 29.7948 26.4974 29.1137C26.4974 29.7948 25.9438 30.3484 25.2627 30.3484C24.5815 30.3484 24.0183 29.9176 24.0183 29.1137V18.3284L22.5646 18.675" stroke="white" stroke-linejoin="round"/>
</g>
<defs>
<clipPath id="clip0_6783_63919">
<rect width="40" height="40" fill="white"/>
</clipPath>
</defs>
</svg>
