<svg width="40" height="40" viewBox="0 0 40 40" fill="none" xmlns="http://www.w3.org/2000/svg">
<path d="M20.0007 39.9978C31.0458 39.9978 39.9995 31.044 39.9995 19.999C39.9995 8.95395 31.0458 0.000183105 20.0007 0.000183105C8.95572 0.000183105 0.00195312 8.95395 0.00195312 19.999C0.00195312 31.044 8.95572 39.9978 20.0007 39.9978Z" fill="#EE6C05"/>
<path d="M32.2414 22.993C33.766 16.1449 29.5222 9.34139 22.7625 7.79685C16.0028 6.25232 9.28708 10.5517 7.76248 17.3997C6.23788 24.2478 10.4818 31.0513 17.2414 32.5959C24.0011 34.1404 30.7168 29.8411 32.2414 22.993Z" stroke="white" stroke-width="1.5" stroke-linecap="round" stroke-linejoin="round"/>
<path d="M21.002 13.0002L20.911 23.0002L17.002 19.4288" stroke="white" stroke-width="1.5" stroke-linecap="round" stroke-linejoin="round"/>
</svg>
