<svg width="40" height="40" viewBox="0 0 40 40" fill="none" xmlns="http://www.w3.org/2000/svg">
<g clip-path="url(#clip0_6783_63935)">
<path d="M19.9988 39.9976C31.0438 39.9976 39.9976 31.0438 39.9976 19.9988C39.9976 8.95376 31.0438 0 19.9988 0C8.95376 0 0 8.95376 0 19.9988C0 31.0438 8.95376 39.9976 19.9988 39.9976Z" fill="#6100BA"/>
<g clip-path="url(#clip1_6783_63935)">
<path d="M14.0045 23.2736H13.4471C13.3161 23.2736 13.2095 23.1674 13.2095 23.0369C13.2095 22.9064 13.3161 22.8003 13.4471 22.8003H14.0045C14.1355 22.8003 14.2421 22.9064 14.2421 23.0369C14.2421 23.1674 14.1355 23.2736 14.0045 23.2736Z" fill="white"/>
<path d="M12.0287 23.7997C11.9079 23.7997 11.804 23.7077 11.7925 23.5853L11.6933 22.5494C11.6927 22.5386 11.692 22.5284 11.6927 22.5176L11.728 21.6109C11.7334 21.4803 11.8427 21.3782 11.9744 21.3837C12.1054 21.3884 12.208 21.4986 12.2025 21.6291L12.1679 22.5203L12.2657 23.5407C12.2779 23.6705 12.1822 23.7862 12.0518 23.799C12.0443 23.7997 12.0369 23.8004 12.0287 23.8004V23.7997Z" fill="white"/>
<path d="M12.7851 23.7997C12.7783 23.7997 12.7722 23.7997 12.7654 23.799C12.6344 23.7882 12.5373 23.6739 12.5482 23.5434L12.6331 22.5203L12.6113 21.6264C12.6079 21.4959 12.7118 21.387 12.8435 21.3843C12.9718 21.3803 13.0839 21.4844 13.0866 21.6156L13.1083 22.5224C13.1083 22.5305 13.1083 22.5393 13.1076 22.5474L13.0214 23.5833C13.0112 23.707 12.9073 23.8004 12.7851 23.8004V23.7997Z" fill="white"/>
<path d="M14.7513 23.8599C14.6366 23.8599 14.5361 23.7774 14.5171 23.6611C14.5144 23.6462 14.4587 23.3013 14.4302 23.0369C14.308 21.9036 13.7458 21.8178 13.5618 21.7894C13.3134 21.7515 12.6894 21.719 12.4294 21.7184H12.426C12.1585 21.7184 11.5122 21.7549 11.2569 21.7894C10.7579 21.857 10.4673 22.2755 10.3926 23.0342C10.3668 23.2966 10.3268 23.6489 10.3268 23.6489L9.85425 23.5961C9.85425 23.5961 9.89363 23.2466 9.91942 22.9876C10.0158 22.0105 10.468 21.4188 11.1931 21.3201C11.4714 21.2822 12.1429 21.2444 12.4267 21.2444H12.4308C12.7105 21.2444 13.3534 21.2775 13.6345 21.3208C14.1396 21.3979 14.7703 21.7495 14.9041 22.9855C14.9312 23.2378 14.9869 23.5813 14.9876 23.5847C15.0086 23.7138 14.9204 23.8355 14.7914 23.8565C14.7785 23.8585 14.7656 23.8599 14.7533 23.8599H14.7513Z" fill="white"/>
<path d="M12.4205 21.4249C12.0002 21.4249 11.5976 21.2139 11.286 20.8312C11.0022 20.4823 10.84 20.0414 10.84 19.6229C10.84 18.7776 11.5196 18.14 12.4205 18.14C13.3214 18.14 14.001 18.7776 14.001 19.6229C14.001 20.0421 13.8381 20.4823 13.555 20.8312C13.244 21.2139 12.8414 21.4249 12.4205 21.4249ZM12.4205 18.6133C11.7803 18.6133 11.3152 19.038 11.3152 19.6229C11.3152 20.2078 11.8081 20.9516 12.4205 20.9516C13.0329 20.9516 13.5258 20.2247 13.5258 19.6229C13.5258 19.021 13.0607 18.6133 12.4205 18.6133Z" fill="white"/>
<path d="M20 27.7594C19.6463 27.7594 19.3584 27.4727 19.3584 27.1204C19.3584 26.7681 19.6463 26.4814 20 26.4814C20.3537 26.4814 20.6416 26.7681 20.6416 27.1204C20.6416 27.4727 20.3537 27.7594 20 27.7594ZM20 26.8128C19.8296 26.8128 19.6911 26.9507 19.6911 27.1204C19.6911 27.2902 19.8296 27.4281 20 27.4281C20.1704 27.4281 20.3089 27.2902 20.3089 27.1204C20.3089 26.9507 20.1704 26.8128 20 26.8128Z" fill="white"/>
<path d="M24.3845 34H15.4112C14.9373 34 14.5523 33.6159 14.5523 33.1446C14.5516 33.1264 14.5469 33.0898 14.5421 33.0479C14.5048 32.7085 14.4668 32.3582 14.7329 32.1425C14.7383 32.1378 14.7445 32.1337 14.7506 32.129L16.236 31.0356C16.4404 30.8665 16.5579 30.6184 16.5579 30.3526V28.8123C16.5579 28.5506 16.7704 28.3389 17.0331 28.3389H22.7632C23.0259 28.3389 23.2384 28.5506 23.2384 28.8123V30.3526C23.2384 30.6177 23.3552 30.8659 23.5603 31.0356L25.0457 32.129C25.0518 32.133 25.0573 32.1378 25.0627 32.1425C25.3295 32.3582 25.2908 32.7092 25.2542 33.0479C25.2494 33.0898 25.2453 33.1264 25.244 33.15C25.244 33.6159 24.859 34 24.3851 34H24.3845ZM15.4981 33.0533H24.2976C24.3003 33.0209 24.3044 32.985 24.3084 32.9458C24.3132 32.9039 24.3207 32.8363 24.3247 32.7761L22.9845 31.7895C22.9784 31.7855 22.973 31.7807 22.9676 31.776C22.5351 31.4264 22.2873 30.9071 22.2873 30.3526V29.2856H17.5077V30.3526C17.5077 30.9071 17.2599 31.4264 16.8274 31.776C16.822 31.7807 16.8158 31.7848 16.8104 31.7895L15.4702 32.7761C15.475 32.8363 15.4818 32.9039 15.4865 32.9458C15.4906 32.9857 15.4947 33.0209 15.4974 33.0533H15.4981Z" fill="white"/>
<path d="M32.5248 25.902H7.47525C7.2125 25.902 7 25.6903 7 25.4286V11.844C7 10.827 7.83032 10 8.85142 10H31.1486C32.1697 10 33 10.827 33 11.844V25.4286C33 25.6903 32.7875 25.902 32.5248 25.902ZM7.95049 24.9553H32.0495V11.844C32.0495 11.349 31.6456 10.9467 31.1486 10.9467H8.85142C8.35445 10.9467 7.95049 11.349 7.95049 11.844V24.9553Z" fill="white"/>
<path d="M31.1486 29.2856H8.85142C7.83032 29.2856 7 28.4586 7 27.4416V25.4286C7 25.1669 7.2125 24.9553 7.47525 24.9553C7.73799 24.9553 7.95049 25.1669 7.95049 25.4286V27.4416C7.95049 27.9366 8.35445 28.3389 8.85142 28.3389H31.1486C31.6456 28.3389 32.0495 27.9366 32.0495 27.4416V25.4286C32.0495 25.1669 32.262 24.9553 32.5248 24.9553C32.7875 24.9553 33 25.1669 33 25.4286V27.4416C33 28.4586 32.1697 29.2856 31.1486 29.2856Z" fill="white"/>
<path d="M21.7713 23.9491C21.6552 23.9491 21.5534 23.8639 21.5364 23.7456C21.5343 23.7314 21.4855 23.3906 21.461 23.1296C21.3904 22.3864 21.1433 21.9733 20.7264 21.9009C20.5126 21.8637 19.9749 21.832 19.7501 21.832H19.7474C19.5213 21.832 18.9544 21.8685 18.7379 21.9016C18.4493 21.9462 18.0888 22.1944 18.008 23.1275C17.9856 23.3865 17.951 23.7354 17.951 23.7354L17.4778 23.6888C17.4778 23.6888 17.5117 23.3433 17.5341 23.087C17.6414 21.8482 18.2083 21.5047 18.6645 21.4344C18.909 21.3965 19.4976 21.3586 19.7467 21.3586H19.7501C19.964 21.3586 20.5424 21.3891 20.8072 21.435C21.2567 21.5128 21.8175 21.8624 21.9335 23.0849C21.9573 23.3345 22.0062 23.6753 22.0062 23.6786C22.0245 23.8078 21.9342 23.9282 21.8046 23.9464C21.793 23.9478 21.7821 23.9491 21.7706 23.9491H21.7713Z" fill="white"/>
<path d="M19.7393 22.5244C19.2994 22.5244 18.9212 22.2174 18.8194 21.7772C18.7895 21.6501 18.8696 21.5229 18.9972 21.4932C19.1256 21.4634 19.2525 21.5432 19.2824 21.6704C19.3347 21.8942 19.5227 22.0511 19.7393 22.0511C19.9559 22.0511 20.1419 21.8962 20.1955 21.6751C20.2261 21.548 20.3537 21.4702 20.482 21.5006C20.6097 21.5311 20.6884 21.6589 20.6572 21.786C20.552 22.2208 20.1745 22.5251 19.7386 22.5251L19.7393 22.5244Z" fill="white"/>
<path d="M19.7434 21.5426C19.0095 21.5426 18.4609 20.698 18.4609 19.9434C18.4609 19.848 18.4759 19.7615 18.4881 19.6912C18.5003 19.6208 18.5438 19.56 18.6062 19.5248C18.6687 19.4903 18.744 19.4849 18.8099 19.5113C19.2403 19.6817 19.5418 19.6053 19.8167 19.255C19.8609 19.1989 19.9281 19.1651 20.0001 19.1644C20.07 19.1617 20.1399 19.1942 20.1861 19.2489C20.3246 19.4132 20.4522 19.4511 20.6932 19.4004C20.8175 19.374 20.9404 19.4498 20.9723 19.5721C21.0083 19.7108 21.0252 19.8284 21.0252 19.9434C21.0252 20.6987 20.4767 21.5426 19.7427 21.5426H19.7434ZM18.9409 20.0434C18.9851 20.5283 19.3367 21.0692 19.7434 21.0692C20.1779 21.0692 20.5507 20.4498 20.5507 19.9434C20.5507 19.9271 20.5507 19.9109 20.5486 19.894C20.3836 19.8987 20.199 19.8649 20.0191 19.7365C19.7142 20.0238 19.3537 20.1266 18.9409 20.0434Z" fill="white"/>
<path d="M17.8932 21.8597C17.8457 21.8597 17.7975 21.8455 17.7561 21.8157C17.6495 21.74 17.6237 21.5933 17.6998 21.4864C17.7038 21.481 17.9795 21.08 17.993 20.5269C18.0019 20.1665 18.0385 19.6337 18.2558 19.1712C18.5375 18.5707 19.0522 18.2536 19.744 18.2536C20.5173 18.2536 21.4488 18.6478 21.4949 20.5262C21.5085 21.0807 21.7855 21.4817 21.7882 21.4858C21.8629 21.5926 21.8371 21.74 21.7305 21.8151C21.6232 21.8901 21.4759 21.8651 21.3999 21.7589C21.3849 21.738 21.0367 21.2417 21.0197 20.5371C20.9898 19.3017 20.5845 18.7262 19.744 18.7262C18.9035 18.7262 18.4982 19.3017 18.4683 20.5371C18.4513 21.241 18.103 21.738 18.0881 21.7589C18.0419 21.8239 17.9686 21.8583 17.8939 21.8583L17.8932 21.8597Z" fill="white"/>
<path d="M28.6915 23.2736H28.1341C28.0031 23.2736 27.8965 23.1674 27.8965 23.0369C27.8965 22.9064 28.0031 22.8003 28.1341 22.8003H28.6915C28.8225 22.8003 28.9291 22.9064 28.9291 23.0369C28.9291 23.1674 28.8225 23.2736 28.6915 23.2736Z" fill="white"/>
<path d="M26.7159 23.7997C26.703 23.7997 26.6901 23.7983 26.6766 23.7963C26.5469 23.7747 26.4593 23.6529 26.481 23.5238L26.7044 22.1876L26.445 21.738C26.3799 21.6244 26.4192 21.4797 26.5326 21.4148C26.646 21.3498 26.7913 21.3884 26.8571 21.502L27.1586 22.0247C27.1857 22.072 27.1959 22.1275 27.1871 22.1816L26.9495 23.6016C26.9298 23.7172 26.8293 23.7997 26.7153 23.7997H26.7159Z" fill="white"/>
<path d="M27.4715 23.7997C27.3574 23.7997 27.257 23.7179 27.2373 23.6016L26.9996 22.1816C26.9908 22.1275 27.0003 22.072 27.0282 22.0247L27.3296 21.502C27.3948 21.3884 27.5401 21.3498 27.6541 21.4148C27.7682 21.4797 27.8069 21.6244 27.7417 21.738L27.4824 22.1876L27.7057 23.5238C27.7275 23.6529 27.6399 23.7747 27.5102 23.7963C27.4973 23.7983 27.4837 23.7997 27.4708 23.7997H27.4715Z" fill="white"/>
<path d="M29.4377 23.8599C29.3229 23.8599 29.2224 23.7774 29.2034 23.6611C29.2007 23.6462 29.145 23.3013 29.1165 23.0369C28.9943 21.9036 28.4322 21.8178 28.2482 21.7894C27.9997 21.7515 27.3758 21.719 27.1151 21.7184H27.1117C26.8442 21.7184 26.1978 21.7549 25.9426 21.7894C25.4436 21.857 25.153 22.2755 25.0783 23.0342C25.0525 23.2966 25.0124 23.6496 25.0124 23.6496L24.5399 23.5968C24.5399 23.5968 24.5793 23.2479 24.6051 22.9883C24.7015 22.0112 25.1537 21.4195 25.8788 21.3208C26.1571 21.2829 26.8286 21.245 27.1124 21.245H27.1164C27.3961 21.245 28.0391 21.2782 28.3208 21.3214C28.826 21.3985 29.4567 21.7501 29.5904 22.9862C29.6176 23.2384 29.6732 23.5819 29.6739 23.5853C29.695 23.7145 29.6067 23.8362 29.4777 23.8572C29.4648 23.8592 29.4519 23.8605 29.4397 23.8605L29.4377 23.8599Z" fill="white"/>
<path d="M27.1069 21.4249C26.6866 21.4249 26.284 21.2139 25.9724 20.8312C25.6886 20.4823 25.5264 20.0414 25.5264 19.6229C25.5264 18.7776 26.206 18.14 27.1069 18.14C28.0078 18.14 28.6874 18.7776 28.6874 19.6229C28.6874 20.0421 28.5245 20.4823 28.2414 20.8312C27.9304 21.2139 27.5278 21.4249 27.1069 21.4249ZM27.1069 18.6133C26.4667 18.6133 26.0016 19.038 26.0016 19.6229C26.0016 20.2078 26.4945 20.9516 27.1069 20.9516C27.7193 20.9516 28.2122 20.2247 28.2122 19.6229C28.2122 19.021 27.7471 18.6133 27.1069 18.6133Z" fill="white"/>
<path d="M26.428 19.9143C26.208 19.9143 25.9731 19.8697 25.7226 19.7811C25.599 19.7371 25.5345 19.6019 25.578 19.4788C25.6221 19.3558 25.7579 19.2915 25.8815 19.3348C26.4653 19.541 26.8917 19.4443 27.2631 19.021C27.3072 18.971 27.3704 18.9413 27.4376 18.9399C27.4389 18.9399 27.4403 18.9399 27.4416 18.9399C27.5075 18.9399 27.57 18.967 27.6148 19.0143C27.8096 19.2212 27.999 19.2712 28.3378 19.2077C28.4675 19.1833 28.5911 19.2679 28.6155 19.3963C28.6399 19.5248 28.5551 19.6485 28.4261 19.6729C28.1443 19.7263 27.7926 19.7479 27.4532 19.5032C27.1517 19.7777 26.8116 19.9143 26.4267 19.9143H26.428Z" fill="white"/>
<path d="M22.0741 17.4935C21.9594 17.4935 21.8589 17.411 21.8399 17.2947C21.8372 17.2799 21.7815 16.935 21.753 16.6706C21.6308 15.5373 21.0686 15.4514 20.8846 15.423C20.6355 15.3852 20.0116 15.3527 19.7522 15.352H19.7488C19.4813 15.352 18.835 15.3886 18.5797 15.423C18.0807 15.4907 17.7901 15.9099 17.7154 16.6679C17.6896 16.9303 17.6503 17.2832 17.6503 17.2832L17.1777 17.2305C17.1777 17.2305 17.2171 16.8809 17.2429 16.6219C17.3393 15.6448 17.7915 15.0532 18.5166 14.9544C18.7949 14.9166 19.4664 14.8787 19.7502 14.8787H19.7542C20.0333 14.8787 20.6762 14.9118 20.958 14.9551C21.4638 15.0322 22.0938 15.3838 22.2276 16.6199C22.2547 16.8721 22.3104 17.2156 22.3111 17.219C22.3321 17.3482 22.2439 17.4699 22.1142 17.4902C22.1013 17.4922 22.0884 17.4929 22.0762 17.4929L22.0741 17.4935Z" fill="white"/>
<path d="M19.7434 15.0579C19.3231 15.0579 18.9205 14.8469 18.6089 14.4642C18.3251 14.1153 18.1628 13.6744 18.1628 13.2559C18.1628 12.4106 18.8424 11.773 19.7434 11.773C20.6443 11.773 21.3239 12.4106 21.3239 13.2559C21.3239 13.6751 21.161 14.1153 20.8779 14.4642C20.5669 14.8469 20.1643 15.0579 19.7434 15.0579ZM19.7434 12.2463C19.1031 12.2463 18.6381 12.6709 18.6381 13.2559C18.6381 13.8408 19.131 14.5846 19.7434 14.5846C20.3558 14.5846 20.8487 13.8577 20.8487 13.2559C20.8487 12.654 20.3836 12.2463 19.7434 12.2463Z" fill="white"/>
<path d="M18.4384 13.4283C18.4167 13.4283 18.3943 13.4256 18.3726 13.4188C18.2463 13.383 18.1737 13.2518 18.2096 13.126C18.285 12.865 18.3787 12.5398 18.6951 12.3883C19.0121 12.2368 19.467 12.2997 20.1697 12.5918C20.2009 12.6047 20.2281 12.6236 20.2512 12.648C20.446 12.8542 20.6348 12.9049 20.9742 12.8407C21.1032 12.8163 21.2275 12.9009 21.2519 13.0293C21.2763 13.1578 21.1915 13.2815 21.0625 13.3059C20.74 13.3667 20.3238 13.3864 19.9416 13.0097C19.2959 12.7467 19.0189 12.7575 18.9001 12.8143C18.7847 12.8697 18.7345 13.0178 18.6659 13.2559C18.636 13.3593 18.541 13.4269 18.4378 13.4269L18.4384 13.4283Z" fill="white"/>
<path d="M29.1349 17.2947C29.0188 17.2947 28.917 17.2095 28.9 17.0912C28.898 17.077 28.8491 16.7362 28.8247 16.4752C28.7541 15.7321 28.5069 15.3189 28.0901 15.2466C27.8762 15.2094 27.3378 15.1776 27.1138 15.1776H27.1111C26.885 15.1776 26.3174 15.2141 26.1015 15.2472C25.813 15.2919 25.4525 15.5407 25.3717 16.4732C25.3493 16.7321 25.3146 17.0811 25.3146 17.0811L24.8414 17.0344C24.8414 17.0344 24.8754 16.6889 24.8978 16.4326C25.0051 15.1938 25.5719 14.8503 26.0282 14.78C26.2719 14.7421 26.8612 14.7049 27.1104 14.7049H27.1138C27.3276 14.7049 27.9054 14.7347 28.1709 14.7807C28.6203 14.8584 29.1804 15.208 29.2972 16.4306C29.321 16.6801 29.3698 17.0209 29.3698 17.0243C29.3882 17.1534 29.2979 17.2738 29.1682 17.292C29.1567 17.2934 29.1458 17.2947 29.1343 17.2947H29.1349Z" fill="white"/>
<path d="M27.0763 16.6273H27.075C26.6025 16.6253 26.3132 15.6841 26.1829 15.1228C26.153 14.9957 26.2331 14.8686 26.3608 14.8388C26.4891 14.8091 26.616 14.8889 26.6459 15.016C26.7654 15.5319 26.9636 16.0025 27.0797 16.1324C27.2359 15.9755 27.4844 15.3311 27.5597 15.0207C27.5903 14.8936 27.7186 14.8151 27.8462 14.8456C27.9739 14.876 28.0526 15.0038 28.0221 15.1309C28.0004 15.2202 27.8985 15.565 27.7593 15.8869C27.5387 16.3988 27.3282 16.6273 27.077 16.6273H27.0763Z" fill="white"/>
<path d="M27.1069 14.8882C26.373 14.8882 25.8245 14.0436 25.8245 13.289C25.8245 13.1943 25.8387 13.1111 25.8516 13.0368C25.8638 12.9664 25.9073 12.9056 25.9698 12.8704C26.0322 12.8353 26.1069 12.8305 26.1741 12.8569C26.6052 13.0273 26.906 12.9509 27.1809 12.6006C27.2251 12.5445 27.2923 12.5107 27.3643 12.51C27.4355 12.5087 27.5041 12.5398 27.5503 12.5945C27.6888 12.7589 27.8171 12.7974 28.0574 12.746C28.1817 12.7196 28.3046 12.7954 28.3365 12.9178C28.3725 13.0564 28.3894 13.174 28.3894 13.289C28.3894 14.0443 27.8409 14.8882 27.1069 14.8882ZM26.3045 13.3891C26.3486 13.8739 26.7003 14.4148 27.1069 14.4148C27.5415 14.4148 27.9142 13.7955 27.9142 13.289C27.9142 13.2728 27.9142 13.2565 27.9121 13.2396C27.7465 13.2444 27.5625 13.2105 27.3826 13.0821C27.0778 13.3695 26.7166 13.4722 26.3045 13.3891Z" fill="white"/>
<path d="M28.6203 14.1146C28.5741 14.1146 28.5279 14.1011 28.4872 14.074C28.3786 14.0003 28.3501 13.8536 28.4241 13.7454C28.6257 13.4492 28.644 13.0956 28.4736 12.7751C28.2394 12.3356 27.7288 12.0725 27.1076 12.0725C26.3669 12.0725 25.9019 12.5384 25.7281 12.938C25.593 13.2491 25.6079 13.5473 25.7674 13.7157C25.8577 13.811 25.853 13.9604 25.7573 14.0504C25.6615 14.1396 25.5115 14.1356 25.4212 14.0402C25.1299 13.7319 25.0804 13.2376 25.2922 12.7501C25.5223 12.2193 26.1361 11.5992 27.1076 11.5992C27.9081 11.5992 28.5761 11.9555 28.8939 12.5533C29.1458 13.0266 29.1172 13.5716 28.8178 14.0112C28.7717 14.0788 28.697 14.1146 28.6209 14.1146H28.6203Z" fill="white"/>
<path d="M14.4484 17.2947C14.3323 17.2947 14.2305 17.2095 14.2135 17.0912C14.2115 17.077 14.1626 16.7362 14.1381 16.4752C14.0675 15.7321 13.8204 15.3189 13.4035 15.2466C13.1897 15.2094 12.6513 15.1776 12.4273 15.1776H12.4245C12.1985 15.1776 11.6309 15.2141 11.415 15.2472C11.1264 15.2919 10.7659 15.5407 10.6851 16.4732C10.6627 16.7321 10.6281 17.0811 10.6281 17.0811L10.1549 17.0344C10.1549 17.0344 10.1889 16.6889 10.2113 16.4326C10.3185 15.1938 10.8854 14.8503 11.3417 14.78C11.5854 14.7421 12.174 14.7049 12.4239 14.7049H12.4273C12.6411 14.7049 13.2189 14.7347 13.4843 14.7807C13.9338 14.8584 14.4939 15.208 14.6107 16.4306C14.6344 16.6801 14.6833 17.0209 14.6833 17.0243C14.7016 17.1534 14.6114 17.2738 14.4817 17.292C14.4701 17.2934 14.4593 17.2947 14.4477 17.2947H14.4484Z" fill="white"/>
<path d="M12.4164 15.8693C11.9765 15.8693 11.5983 15.5623 11.4965 15.1221C11.4666 14.995 11.5467 14.8679 11.6744 14.8381C11.802 14.8084 11.9296 14.8882 11.9595 15.0153C12.0118 15.2391 12.1998 15.396 12.4164 15.396C12.633 15.396 12.819 15.2411 12.8727 15.02C12.9032 14.8929 13.0315 14.8151 13.1592 14.8449C13.2868 14.8753 13.3656 15.0031 13.335 15.1303C13.2305 15.565 12.8523 15.8693 12.4164 15.8693Z" fill="white"/>
<path d="M12.4205 14.8882C11.6866 14.8882 11.1381 14.0436 11.1381 13.289C11.1381 13.1943 11.1523 13.1111 11.1652 13.0368C11.1774 12.9664 11.2209 12.9056 11.2834 12.8704C11.3458 12.8353 11.4205 12.8305 11.4877 12.8569C11.9188 13.0273 12.2196 12.9509 12.4945 12.6006C12.5387 12.5445 12.6059 12.5107 12.6779 12.51C12.7505 12.5087 12.8177 12.5398 12.8639 12.5945C13.0024 12.7589 13.13 12.7974 13.371 12.746C13.4953 12.7196 13.6182 12.7954 13.6501 12.9178C13.6861 13.0557 13.703 13.174 13.703 13.289C13.703 14.0443 13.1545 14.8882 12.4205 14.8882ZM11.6181 13.3891C11.6622 13.8739 12.0139 14.4148 12.4205 14.4148C12.8551 14.4148 13.2278 13.7955 13.2278 13.289C13.2278 13.2728 13.2278 13.2565 13.2257 13.2396C13.0614 13.2444 12.8761 13.2099 12.6962 13.0821C12.3914 13.3695 12.0302 13.4722 11.6181 13.3891Z" fill="white"/>
<path d="M14.2699 15.2053C14.1803 15.2053 14.0941 15.1546 14.054 15.068C13.999 14.9497 14.0513 14.8091 14.1701 14.7536C14.2217 14.7286 14.3399 14.6468 14.3426 14.5704C14.3453 14.4831 14.2095 14.3033 13.8171 14.0849C13.5157 13.9165 13.4328 13.5459 13.3446 13.1531C13.1945 12.4809 13.0567 12.0732 12.4199 12.0732C11.783 12.0732 11.669 12.4803 11.523 13.1517C11.4354 13.5541 11.3445 13.9699 10.9894 14.1011C10.726 14.1978 10.5623 14.3195 10.5413 14.4338C10.5175 14.5609 10.656 14.7286 10.7266 14.7901C10.8251 14.876 10.8359 15.0254 10.7504 15.1235C10.6649 15.2222 10.5162 15.233 10.4164 15.1485C10.3729 15.112 9.9968 14.7766 10.0735 14.3506C10.1272 14.0538 10.3797 13.8198 10.8251 13.6562C10.9358 13.6156 11.0016 13.3154 11.0593 13.051C11.1856 12.4728 11.3757 11.5999 12.4206 11.5999C13.4654 11.5999 13.68 12.4728 13.8089 13.0503C13.8673 13.3113 13.9332 13.6075 14.05 13.6717C14.5795 13.9672 14.8307 14.2674 14.8178 14.5893C14.8029 14.9734 14.4139 15.1627 14.3697 15.183C14.3372 15.1979 14.3039 15.2046 14.2699 15.2046V15.2053Z" fill="white"/>
</g>
</g>
<defs>
<clipPath id="clip0_6783_63935">
<rect width="40" height="40" fill="white"/>
</clipPath>
<clipPath id="clip1_6783_63935">
<rect width="26" height="24" fill="white" transform="translate(7 10)"/>
</clipPath>
</defs>
</svg>
