<svg width="40" height="40" viewBox="0 0 40 40" fill="none" xmlns="http://www.w3.org/2000/svg">
<g clip-path="url(#clip0_6755_55892)">
<path d="M19.9969 39.9939C31.041 39.9939 39.9939 31.041 39.9939 19.9969C39.9939 8.95294 31.041 0 19.9969 0C8.95294 0 0 8.95294 0 19.9969C0 31.041 8.95294 39.9939 19.9969 39.9939Z" fill="#EE6C05"/>
<path fill-rule="evenodd" clip-rule="evenodd" d="M11.4663 7.11337C12.5837 6.57605 13.8354 6.27686 15.1543 6.27686C19.8803 6.27686 23.7148 10.1114 23.7148 14.8374C23.7148 15.8632 23.5316 16.8523 23.2019 17.7682L32.776 27.3423C33.6125 28.1789 33.6125 29.5283 32.776 30.3648L30.0467 33.0941C29.2101 33.9306 27.8607 33.9306 27.0242 33.0941L17.1021 23.172C16.4732 23.3185 15.8259 23.3918 15.1543 23.3918C10.4283 23.3918 6.59375 19.5573 6.59375 14.8313C6.59375 13.5124 6.89294 12.2607 7.43026 11.1433C7.55849 10.8746 7.80883 10.6853 8.10192 10.6365C8.395 10.5876 8.69419 10.6792 8.90179 10.8929L13.8171 15.8082L16.1251 13.5002L11.2098 8.5849C11.0022 8.3773 10.9045 8.07811 10.9534 7.78502C11.0022 7.49194 11.1915 7.24159 11.4602 7.11337H11.4663ZM13.524 8.31013L18.0668 12.853C18.2378 13.0239 18.3355 13.2559 18.3355 13.5002C18.3355 13.7444 18.2378 13.9764 18.0668 14.1474L14.4643 17.7499C14.1041 18.1102 13.524 18.1102 13.1698 17.7499L8.62703 13.2071C8.4988 13.7261 8.42553 14.2756 8.42553 14.8374C8.42553 18.5559 11.4358 21.5661 15.1543 21.5661C15.8381 21.5661 16.4915 21.4623 17.1082 21.2791C17.4318 21.1814 17.7798 21.2669 18.0241 21.5051L28.3187 31.7997C28.4408 31.9218 28.6301 31.9218 28.7522 31.7997L31.4816 29.0703C31.6037 28.9482 31.6037 28.7589 31.4816 28.6368L21.48 18.6353C21.2114 18.3666 21.1381 17.9575 21.2907 17.6095C21.6693 16.7669 21.883 15.8265 21.883 14.8435C21.883 11.125 18.8728 8.11474 15.1543 8.11474C14.5925 8.11474 14.043 8.18191 13.524 8.31624V8.31013Z" fill="white"/>
</g>
<defs>
<clipPath id="clip0_6755_55892">
<rect width="40" height="40" fill="white"/>
</clipPath>
</defs>
</svg>
