<svg width="160" height="57" viewBox="0 0 160 57" fill="none" xmlns="http://www.w3.org/2000/svg">
<path d="M78.0458 38.4904C77.4962 38.2452 77.0687 37.9387 76.8244 37.5097C76.5191 37.0807 76.3359 36.5904 76.3359 36.0387H77.7405C77.8015 36.5291 77.9847 36.8968 78.3511 37.2645C78.7176 37.571 79.2061 37.7549 79.8779 37.7549C80.4886 37.7549 81.0382 37.571 81.4046 37.2645C81.771 36.9581 81.9542 36.5291 81.9542 36.0387C81.9542 35.671 81.8321 35.3033 81.6489 35.0581C81.4046 34.8129 81.1603 34.6291 80.855 34.5065C80.5496 34.3839 80.1221 34.2613 79.5725 34.0775C78.9008 33.8936 78.3511 33.7097 77.9847 33.5258C77.5572 33.342 77.2519 33.0968 76.9466 32.6678C76.6412 32.2387 76.5191 31.8097 76.5191 31.1355C76.5191 30.5839 76.6412 30.0936 76.9466 29.6645C77.2519 29.2355 77.6183 28.9291 78.1679 28.6839C78.7176 28.4387 79.2672 28.3162 79.9389 28.3162C80.916 28.3162 81.6489 28.5613 82.2595 29.0516C82.8702 29.542 83.2366 30.1549 83.2977 30.9516H81.8321C81.771 30.5839 81.5878 30.2162 81.2214 29.9097C80.855 29.6033 80.3664 29.4807 79.8168 29.4807C79.2672 29.4807 78.7786 29.6033 78.4733 29.9097C78.1069 30.2162 77.9237 30.5839 77.9237 31.1355C77.9237 31.5033 78.0458 31.8097 78.229 32.0549C78.4122 32.3 78.7176 32.4839 79.0229 32.6065C79.3282 32.7291 79.7557 32.8516 80.3053 33.0355C80.9771 33.2194 81.5267 33.4033 81.9542 33.5871C82.3817 33.771 82.687 34.0775 82.9924 34.4452C83.2977 34.8129 83.4198 35.3645 83.4198 35.9775C83.4198 36.4678 83.2977 36.9581 83.0534 37.3871C82.8092 37.8162 82.3817 38.1839 81.8931 38.4291C81.4046 38.6742 80.7939 38.8581 80.0611 38.8581C79.2061 38.8581 78.5954 38.7355 78.0458 38.4904Z" fill="#B9B7B7"/>
<path d="M86.5344 29.6032V33.0355H90.2596V34.1387H86.5344V37.6935H90.687V38.7968H85.1909V28.5H90.687V29.6032H86.5344Z" fill="#B9B7B7"/>
<path d="M101.191 28.5L97.3435 38.7355H95.8168L91.9695 28.5H93.3741L96.5496 37.3258L99.7252 28.5H101.191Z" fill="#B9B7B7"/>
<path d="M103.939 29.6032V33.0355H107.664V34.1387H103.939V37.6935H108.092V38.7968H102.595V28.5H108.092V29.6032H103.939Z" fill="#B9B7B7"/>
<path d="M118.168 38.7355H116.824L111.45 30.5839V38.7355H110.107V28.5H111.45L116.824 36.6516V28.5H118.168V38.7355Z" fill="#B9B7B7"/>
<path d="M125.985 32.7904V33.8936H120.122V32.7904H125.985Z" fill="#B9B7B7"/>
<path d="M134.779 28.5V29.6032H131.969V38.7355H130.626V29.6032H127.817V28.5H134.779Z" fill="#B9B7B7"/>
<path d="M137.71 28.5V38.7355H136.366V28.5H137.71Z" fill="#B9B7B7"/>
<path d="M150.351 28.6226V38.7968H149.008V31.1968L145.649 38.7968H144.733L141.374 31.1968V38.7968H140.031V28.6226H141.435L145.16 37.0193L148.885 28.6226H150.351Z" fill="#B9B7B7"/>
<path d="M153.954 29.6032V33.0355H157.679V34.1387H153.954V37.6935H158.107V38.7968H152.611V28.5H158.107V29.6032H153.954Z" fill="#B9B7B7"/>
<path d="M85.4962 42.8419V55.958H83.7863V50.0129H77.1298V55.958H75.4199V42.8419H77.1298V48.6032H83.7863V42.8419H85.4962Z" fill="#B9B7B7"/>
<path d="M90.9924 55.2226C90.0153 54.671 89.2214 53.8742 88.6107 52.8323C88 51.7903 87.7557 50.6871 87.7557 49.4C87.7557 48.1129 88.0611 46.9484 88.6107 45.9677C89.2214 44.9258 89.9542 44.129 90.9924 43.5774C91.9695 43.0258 93.0687 42.7194 94.2901 42.7194C95.5115 42.7194 96.6107 43.0258 97.6489 43.5774C98.626 44.129 99.4199 44.9258 100.031 45.9677C100.58 47.0097 100.886 48.1129 100.886 49.4C100.886 50.6871 100.58 51.8516 100.031 52.8323C99.4809 53.8742 98.687 54.6097 97.6489 55.2226C96.6718 55.7742 95.5115 56.0807 94.2901 56.0807C93.0687 56.0807 91.9695 55.8355 90.9924 55.2226ZM96.7328 53.9968C97.4657 53.5677 98.0153 52.9548 98.4428 52.1581C98.8702 51.3613 99.0534 50.4419 99.0534 49.4C99.0534 48.3581 98.8702 47.4387 98.4428 46.6419C98.0153 45.8452 97.4657 45.2323 96.7328 44.8032C96 44.3742 95.2061 44.1903 94.2901 44.1903C93.3741 44.1903 92.5191 44.3742 91.7863 44.8032C91.0535 45.2323 90.5038 45.8452 90.0763 46.6419C89.6489 47.4387 89.4657 48.3581 89.4657 49.4C89.4657 50.4419 89.6489 51.3613 90.0763 52.1581C90.5038 52.9548 91.0535 53.5677 91.7863 53.9968C92.5191 54.4258 93.313 54.6097 94.229 54.6097C95.2061 54.6097 96 54.4258 96.7328 53.9968Z" fill="#B9B7B7"/>
<path d="M113.344 55.958H111.634L104.794 45.5387V55.958H103.084V42.8419H104.794L111.634 53.2613V42.8419H113.344V55.958Z" fill="#B9B7B7"/>
<path d="M118.901 55.2226C117.924 54.671 117.13 53.8742 116.519 52.8323C115.908 51.7903 115.664 50.6871 115.664 49.4C115.664 48.1129 115.969 46.9484 116.519 45.9677C117.13 44.9258 117.863 44.129 118.901 43.5774C119.878 43.0258 120.977 42.7194 122.198 42.7194C123.42 42.7194 124.519 43.0258 125.557 43.5774C126.534 44.129 127.328 44.9258 127.939 45.9677C128.489 47.0097 128.794 48.1129 128.794 49.4C128.794 50.6871 128.489 51.8516 127.939 52.8323C127.389 53.8742 126.595 54.6097 125.557 55.2226C124.58 55.7742 123.42 56.0807 122.198 56.0807C120.977 56.0807 119.878 55.8355 118.901 55.2226ZM124.641 53.9968C125.374 53.5677 125.924 52.9548 126.351 52.1581C126.779 51.3613 126.962 50.4419 126.962 49.4C126.962 48.3581 126.779 47.4387 126.351 46.6419C125.924 45.8452 125.374 45.2323 124.641 44.8032C123.908 44.3742 123.115 44.1903 122.198 44.1903C121.282 44.1903 120.427 44.3742 119.695 44.8032C118.962 45.2323 118.412 45.8452 117.985 46.6419C117.557 47.4387 117.374 48.3581 117.374 49.4C117.374 50.4419 117.557 51.3613 117.985 52.1581C118.412 52.9548 118.962 53.5677 119.695 53.9968C120.427 54.4258 121.221 54.6097 122.137 54.6097C123.115 54.6097 123.908 54.4258 124.641 53.9968Z" fill="#B9B7B7"/>
<path d="M137.893 55.958L134.779 50.6258H132.702V55.958H130.992V42.8419H135.206C136.183 42.8419 137.038 43.0258 137.71 43.3322C138.382 43.7 138.87 44.129 139.237 44.6806C139.603 45.2322 139.725 45.9064 139.725 46.6419C139.725 47.5613 139.481 48.358 138.931 49.0322C138.443 49.7064 137.649 50.1968 136.611 50.3806L139.908 55.8968H137.893V55.958ZM132.702 49.2161H135.206C136.122 49.2161 136.794 48.9709 137.282 48.5419C137.771 48.1129 137.954 47.5 137.954 46.7032C137.954 45.9064 137.71 45.3548 137.282 44.9258C136.855 44.4968 136.122 44.3129 135.206 44.3129H132.702V49.2161Z" fill="#B9B7B7"/>
<path d="M144.122 44.2516V48.6032H148.886V50.0129H144.122V54.5484H149.435V55.958H142.412V42.8419H149.435V44.2516H144.122Z" fill="#B9B7B7"/>
<path d="M153.71 44.2516V48.6032H158.473V50.0129H153.71V54.5484H159.023V55.958H152V42.8419H159.023V44.2516H153.71Z" fill="#B9B7B7"/>
<path d="M1.52673 1.40967H13.8626V6.31289H11.542V22.4935H13.8626V27.4581H1.52673V22.4935H3.84734V6.31289H1.52673V1.40967Z" fill="#B9B7B7"/>
<path d="M27.1145 27.4581H15.6947V22.5548H17.2825V13.6677H15.6947V8.8258H23.6336L24.4886 11.1548C25.771 9.37742 27.481 8.15161 29.8016 8.15161C35.542 8.15161 36.5191 12.4419 36.5191 16.3645V22.6161H38.2901V27.5194H28.8855V17.2839C28.8855 15.9968 29.0077 13.7903 26.8092 13.7903C24.9161 13.7903 24.4886 15.629 24.4886 17.2839V22.5548H27.1756V27.4581H27.1145Z" fill="#B9B7B7"/>
<path d="M49.8321 13.2999C47.6336 13.2999 46.5343 15.629 46.5343 18.0806C46.5343 20.5322 48 22.4322 50.3817 22.4935C52.3359 22.5548 53.6794 21.6967 54.9008 20.3483L58.1985 24.1483C56.4275 26.0483 53.1298 27.9483 49.0992 27.9483C43.6641 27.9483 38.9008 24.6387 38.9008 18.0193C38.9008 11.3999 43.2977 8.45801 48.0611 8.45801C50.5649 8.45801 52.0916 9.80639 52.7023 10.6032L53.313 8.82575H57.7099V17.2225H52.2748C52.0916 15.4451 51.542 13.2999 49.8321 13.2999Z" fill="#B9B7B7"/>
<path d="M63.2672 19.3064C65.9542 19.3064 67.542 21.6354 67.542 23.5354C67.542 25.7419 66.0764 27.5806 63.2672 27.5806C60.8245 27.5806 59.0535 25.558 59.0535 23.5354C59.0535 21.6354 60.5191 19.3064 63.2672 19.3064Z" fill="#B9B7B7"/>
<path d="M57.4657 30.829C54.168 30.829 51.4199 32.5451 49.6489 35.4258C48.0611 32.5451 45.3741 30.829 41.4046 30.829C38.1069 30.829 35.4199 32.4838 33.6489 35.3032C32.0611 32.4838 29.3741 30.829 25.4657 30.829C22.6565 30.829 20.2138 32.0548 18.5038 34.1999L16.7328 34.5064L17.0993 36.529C16.6107 37.5709 16.2443 38.6741 16 39.8999C14.8397 39.3483 13.6183 39.0419 12.3359 39.0419C10.626 39.0419 9.28246 39.4096 8.6107 39.8999L9.22139 36.529H17.1603C17.5878 35.6709 18.0153 34.9354 18.5649 34.2612V31.3193H4.88551L2.74811 43.2709L7.20612 45.2322C7.93895 44.4967 8.85498 43.6387 10.4428 43.6387C12.397 43.6387 13.9847 45.1709 13.9847 47.0096C13.9847 49.0322 12.5191 50.5032 10.1985 50.5032C8.18322 50.5032 6.71757 49.3387 5.31299 47.929L1.52673 51.8516C2.93131 53.9967 6.59544 56.0806 10.1374 56.0806C13.2519 56.0806 16.4275 54.9774 18.4428 52.7096C20.2138 54.9161 22.7786 56.0193 25.7099 56.0193C29.313 56.0193 32 54.487 33.6489 51.6677C35.4199 54.5483 38.229 56.0193 41.6489 56.0193C45.313 56.0193 48 54.4257 49.5878 51.6064C51.3588 54.5483 54.229 56.0193 57.6489 56.0193C63.9389 56.0193 67.4199 51.2999 67.4199 43.5774C67.4199 35.9161 64.3054 30.829 57.4657 30.829ZM25.771 50.687C24.3664 50.687 22.6565 47.8677 22.6565 43.3935C22.6565 39.1645 24.2443 36.4677 25.5267 36.529C27.2367 36.529 28.5191 39.5322 28.5191 43.6387C28.5802 47.8677 27.3588 50.687 25.771 50.687ZM41.6489 50.687C40.2443 50.687 38.5344 47.8677 38.5344 43.3935C38.5344 39.1645 40.1222 36.4677 41.4046 36.529C43.1145 36.529 44.397 39.5322 44.397 43.6387C44.458 47.8677 43.2367 50.687 41.6489 50.687ZM57.6489 50.687C56.2443 50.687 54.5344 47.8677 54.5344 43.3935C54.5344 39.1645 56.1222 36.4677 57.4046 36.529C59.1145 36.529 60.397 39.5322 60.397 43.6387C60.458 47.8677 59.2367 50.687 57.6489 50.687Z" fill="#B9B7B7"/>
</svg>
